<svg xmlns="http://www.w3.org/2000/svg" width="200.113" height="71.858" viewBox="0 0 200.113 71.858">
  <g id="Jobflix-rgb" transform="translate(0 0)">
    <path id="Tracciato_1" data-name="Tracciato 1" d="M380.479,617.369a10.26,10.26,0,0,0-9.677-5.9h0a10.261,10.261,0,1,0,4.718,19.556l.033-.017a10.263,10.263,0,0,0,4.924-13.645Z" transform="translate(-360.924 -563.599)" fill="#108cd8"/>
    <path id="Tracciato_2" data-name="Tracciato 2" d="M455.081,340.471l4.364-.1v40.345c0,6.7-2.565,14.933-9.715,15.237a29.38,29.38,0,0,0,4.06.772c10.145,0,15.28-8.167,15.28-18.312,0,0-.027-51.147-.085-53.546l-13.9,15.6Z" transform="translate(-434.898 -324.87)" fill="#03121c"/>
    <path id="Tracciato_3" data-name="Tracciato 3" d="M621.1,428.88a16.657,16.657,0,0,1,11.773,4.651,14.676,14.676,0,0,1,4.884,11.25,14.888,14.888,0,0,1-4.884,11.309,16.831,16.831,0,0,1-11.773,4.593,17.037,17.037,0,0,1-11.86-4.593,15.058,15.058,0,0,1-4.825-11.309,14.843,14.843,0,0,1,4.825-11.25A16.763,16.763,0,0,1,621.1,428.88Zm-7.82,15.9a7.746,7.746,0,0,0,7.82,7.85,7.487,7.487,0,0,0,5.523-2.268,7.777,7.777,0,0,0,2.268-5.582,7.613,7.613,0,0,0-2.268-5.552,7.824,7.824,0,0,0-11.075,0A7.551,7.551,0,0,0,613.275,444.782Z" transform="translate(-563.744 -411.509)" fill="#03121c"/>
    <path id="Tracciato_4" data-name="Tracciato 4" d="M840.605,407h0a8.9,8.9,0,0,1-8.9-8.9V365.52h8.9v15.407a5.957,5.957,0,0,1,3.125-3.227,12.523,12.523,0,0,1,5.8-1.249,13.783,13.783,0,0,1,10.582,4.535,15.3,15.3,0,0,1,4.3,11.018,15.523,15.523,0,0,1-4.3,11.075,13.912,13.912,0,0,1-10.582,4.448,12.745,12.745,0,0,1-5.814-1.236,5.776,5.776,0,0,1-3.11-3.212V407Zm7.3-7.5a7.558,7.558,0,0,0,5.437-2.151,7.286,7.286,0,0,0,2.209-5.35,7.064,7.064,0,0,0-2.209-5.291,7.39,7.39,0,0,0-5.437-2.21,7.818,7.818,0,0,0-5.582,2.21A7.067,7.067,0,0,0,840.053,392a7.286,7.286,0,0,0,2.268,5.35A7.929,7.929,0,0,0,847.9,399.5Z" transform="translate(-753.081 -358.731)" fill="#03121c"/>
    <path id="Tracciato_5" data-name="Tracciato 5" d="M1066.268,422.829h0a8.576,8.576,0,0,1-8.576-8.576V383.339h-4.942v-8.024h4.942v-.843q0-6.511,3.517-9.273,2.558-2.21,8.286-2.21a24.787,24.787,0,0,1,3.576.291v7.384a9.221,9.221,0,0,0-2.7-.291,4.782,4.782,0,0,0-3.125.829,3.428,3.428,0,0,0-.974,2.747v1.366h6.018v8.024h-6.018Zm19.3-17.512h0a8.9,8.9,0,0,1-8.9-8.9V363.835h8.9Z" transform="translate(-937.203 -356.623)" fill="#108cd8"/>
    <path id="Tracciato_6" data-name="Tracciato 6" d="M1298.178,363.789a5.059,5.059,0,1,0-10.118,0,4.745,4.745,0,0,0,1.483,3.546,5.126,5.126,0,0,0,7.151,0A4.775,4.775,0,0,0,1298.178,363.789Zm-9.535,37.559h0a8.9,8.9,0,0,0,8.9-8.9v-21.1h-8.9Z" transform="translate(-1133.212 -353.075)" fill="#108cd8"/>
    <path id="Tracciato_7" data-name="Tracciato 7" d="M1378.746,464.27h0a4.913,4.913,0,0,1-3.987-7.785l5.76-8-10.29-14.215h9.652l5.582,7.907,5.61-7.907h0a4.92,4.92,0,0,1,3.982,7.81l-4.65,6.405,11.365,15.785h-9.563l-6.744-9.361-6.715,9.361Z" transform="translate(-1201.658 -415.998)" fill="#108cd8"/>
  </g>
</svg>
