<?xml version="1.0" encoding="UTF-8"?><svg id="Livello_1" xmlns="http://www.w3.org/2000/svg" viewBox="0 0 1920 1080"><defs><style>.cls-1{fill:#fff;stroke-width:0px;}</style></defs><path class="cls-1" d="m478.01,646.81c-10.47-22.33-33.29-36.23-57.94-35.3h0c-8.21.32-16.28,2.27-23.73,5.75-30.72,14.37-43.98,50.91-29.63,81.64,14.35,30.73,50.88,44.02,81.61,29.7l.2-.1c30.69-14.43,43.88-51,29.48-81.7Z"/><path class="cls-1" d="m481.77,418.28l26.13-.58v241.56c0,40.1-15.36,89.41-58.17,91.23,6.3,1.12,17.68,4.62,24.31,4.62,60.74,0,91.49-48.9,91.49-109.64,0,0-.16-306.24-.51-320.6l-83.25,93.4Z"/><path class="cls-1" d="m704.31,428.88c27.15,0,50.65,9.29,70.49,27.85,19.49,17.99,29.24,40.44,29.24,67.36s-9.75,49.37-29.24,67.71c-19.96,18.34-43.46,27.5-70.49,27.5s-51.06-9.16-71.01-27.5c-19.26-18.45-28.89-41.02-28.89-67.71s9.63-49.26,28.89-67.36c19.84-18.56,43.51-27.85,71.01-27.85Zm-46.82,95.21c0,13.23,4.53,24.37,13.58,33.42,9.05,9.05,20.13,13.58,33.24,13.58s24.02-4.53,33.07-13.58c9.05-9.4,13.58-20.54,13.58-33.42s-4.53-24.19-13.58-33.24c-8.82-9.16-19.84-13.75-33.07-13.75s-24.43,4.59-33.24,13.75c-9.05,9.05-13.58,20.13-13.58,33.24Z"/><path class="cls-1" d="m884.97,613.89h0c-29.41,0-53.26-23.85-53.26-53.26v-195.11h53.26v92.25c2.78-7.89,9.02-14.33,18.71-19.32,9.69-4.99,21.26-7.48,34.72-7.48,25.53,0,46.65,9.05,63.36,27.15,17.17,17.87,25.76,39.86,25.76,65.97s-8.59,48.1-25.76,66.31c-16.71,17.75-37.83,26.63-63.36,26.63-13.46,0-25.06-2.47-34.81-7.4-9.75-4.93-15.95-11.34-18.62-19.23v23.5Zm43.69-44.91c12.76,0,23.61-4.29,32.55-12.88,8.82-8.82,13.23-19.49,13.23-32.03s-4.41-23.21-13.23-31.68c-8.82-8.82-19.67-13.23-32.55-13.23s-24.25,4.41-33.42,13.23c-9.05,8.7-13.58,19.26-13.58,31.68s4.53,22.98,13.58,32.03c9.28,8.59,20.42,12.88,33.42,12.88Z"/><path class="cls-1" d="m1133.69,721.27h0c-28.36,0-51.35-22.99-51.35-51.35v-185.09s-29.59,0-29.59,0v-48.04h29.59v-5.05c0-25.99,7.02-44.5,21.06-55.52,10.21-8.82,26.75-13.23,49.61-13.23,6.38,0,13.52.58,21.41,1.74v44.21c-3.48-1.16-8.88-1.74-16.19-1.74-8.59,0-14.82,1.65-18.71,4.96-3.89,3.31-5.83,8.79-5.83,16.45v8.18h36.03v48.04h-36.03v236.44Zm115.57-104.85h0c-29.41,0-53.26-23.85-53.26-53.26v-195.11h53.26v248.37Z"/><path class="cls-1" d="m1348.64,389.02c0-8.47-2.96-15.64-8.88-21.5-5.92-5.86-13.05-8.79-21.41-8.79s-15.49,2.93-21.41,8.79c-5.92,5.86-8.88,13.03-8.88,21.5s2.96,15.43,8.88,21.23c5.92,5.8,13.05,8.7,21.41,8.7s15.49-2.9,21.41-8.7c5.92-5.8,8.88-12.88,8.88-21.23Zm-57.09,224.88h0c29.41,0,53.26-23.85,53.26-53.26v-126.36h-53.26v179.62Z"/><path class="cls-1" d="m1421.22,613.89h0c-23.98,0-37.89-27.15-23.87-46.61l34.49-47.9-61.61-85.11h57.79l33.42,47.34,33.59-47.34h0c24.06,0,37.97,27.29,23.84,46.76l-27.84,38.35,68.05,94.51h-57.26l-40.38-56.05-40.21,56.05Z"/></svg>