<?xml version="1.0" standalone="no"?>
<!DOCTYPE svg PUBLIC "-//W3C//DTD SVG 20010904//EN"
 "http://www.w3.org/TR/2001/REC-SVG-20010904/DTD/svg10.dtd">
<svg version="1.0" xmlns="http://www.w3.org/2000/svg"
 width="700.000000pt" height="700.000000pt" viewBox="0 0 700.000000 700.000000"
 preserveAspectRatio="xMidYMid meet">
<metadata>
Created by potrace 1.14, written by Peter Selinger 2001-2017
</metadata>
<g transform="translate(0.000000,700.000000) scale(0.100000,-0.100000)"
fill="#000000" stroke="none">
<path d="M4235 5504 c-242 -272 -458 -516 -480 -541 l-39 -46 152 6 152 5 0
-1468 c0 -1591 0 -1582 -54 -1791 -91 -348 -285 -570 -537 -613 l-74 -13 95
-22 c128 -31 200 -36 315 -22 476 60 781 373 897 919 l23 107 3 1988 c1 1093
-1 1987 -5 1986 -5 0 -206 -223 -448 -495z"/>
<path d="M2850 2640 c-255 -68 -448 -258 -516 -510 -25 -89 -25 -271 -1 -360
55 -201 194 -369 382 -460 104 -51 187 -70 306 -70 400 0 712 311 712 710 0
309 -192 577 -484 674 -115 39 -288 46 -399 16z"/>
</g>
</svg>
