<svg xmlns="http://www.w3.org/2000/svg" xmlns:xlink="http://www.w3.org/1999/xlink" width="116.249" height="127.02" viewBox="0 0 116.249 127.02">
  <defs>
    <clipPath id="clip-path">
      <rect id="Rettangolo_472" data-name="Rettangolo 472" width="116.249" height="127.02" fill="#23b745"/>
    </clipPath>
  </defs>
  <g id="Raggruppa_2324" data-name="Raggruppa 2324" transform="translate(0 -0.001)">
    <g id="Raggruppa_2323" data-name="Raggruppa 2323" transform="translate(0 0.001)" clip-path="url(#clip-path)">
      <path id="Tracciato_1450" data-name="Tracciato 1450" d="M39.717,53.767c2.507.489,5.015.968,7.517,1.472,1.654.332,3.335.589,4.941,1.081a3.032,3.032,0,0,1,2.322,3.5A2.889,2.889,0,0,1,51.36,62.55a27.359,27.359,0,0,1-4.117-.361c-5.449-.866-10.881-1.833-16.334-2.667-4.654-.713-6.146-3.126-4.068-7.419,2.6-5.378,5.474-10.631,8.288-15.907.864-1.623,2.232-2.752,4.134-1.805,1.8.9,2.02,2.508,1.264,4.332s-1.4,3.678-2.394,6.295a26.415,26.415,0,0,0,3.155-1.436C46.168,40.391,92.341,19.814,97.205,16.6a14.283,14.283,0,0,1,2.748-1.651c1.683-.623,3.465-.668,4.427,1.179s-.017,3.072-1.629,4.162c-6.357,4.295-53.971,26.026-60.28,30.393-.987.684-1.947,1.406-2.919,2.108.056.326.111.651.166.977" transform="translate(11.486 6.451)" fill="#23b745"/>
      <path id="Tracciato_1451" data-name="Tracciato 1451" d="M15.533,25.993c1.215-1.094,2.416-2.2,3.648-3.277,1.39-1.209,2.739-2.484,4.233-3.553a2.947,2.947,0,0,1,4.168.455c1.258,1.342,1.075,2.818.065,4.2a18.146,18.146,0,0,1-1.876,2.028c-4.557,4.579-9.14,9.132-13.68,13.729-3.641,3.686-6.7,3.253-8.143-1.638C2.341,32.5,1.286,26.885.131,21.316-.224,19.6.042,17.845,2.172,17.248c1.788-.5,2.929.424,3.785,3.019.418,1.266.788,2.546,1.469,4.765a29.066,29.066,0,0,0,1.585-3.416c1.44-5.025,2.808-10.073,4.214-15.108a27.873,27.873,0,0,1,1.358-4.391C15.271.654,16.536-.4,18.305.149c2.013.628,2.354,2.218,1.879,4.09q-2.1,8.269-4.194,16.538c-.4,1.592-.8,3.185-1.2,4.777l.74.44" transform="translate(0 -0.001)" fill="#23b745"/>
      <path id="Tracciato_1452" data-name="Tracciato 1452" d="M38.332,81.71c1.165,3.23,2.074,5.67,2.918,8.133a17.239,17.239,0,0,1,.95,3.537c.172,1.476-.326,3.039-1.957,3.133a6.088,6.088,0,0,1-3.531-1.351c-.636-.465-.81-1.606-1.126-2.466C34,88.371,32.412,84.048,30.864,79.71c-1.5-4.189.048-7.6,4.279-8.449,5.1-1.026,10.308-1.569,15.473-2.283a3.817,3.817,0,0,1,2.263.076c1.072.662,2.411,1.512,2.764,2.574.564,1.7-.71,3.036-2.352,3.338-2.391.442-4.853.5-8.073.8a18.387,18.387,0,0,0,2.338,1.813c3.564,1.794,7.175,3.5,10.734,5.3a6.418,6.418,0,0,1,2.569,1.853,3.559,3.559,0,0,1,.362,2.94,3.206,3.206,0,0,1-2.5,1.488,11.905,11.905,0,0,1-3.872-1.237c-4.387-1.827-8.742-3.729-13.135-5.539a21.61,21.61,0,0,0-3.383-.672" transform="translate(13.428 30.503)" fill="#23b745"/>
    </g>
  </g>
</svg>
