<svg xmlns="http://www.w3.org/2000/svg" xmlns:xlink="http://www.w3.org/1999/xlink" width="393" height="852" viewBox="0 0 393 852">
  <defs>
    <clipPath id="clip-path">
      <path id="Tracciato_728" data-name="Tracciato 728" d="M969.377,680.518c-12.03,2.432-22.893,8.818-32.732,16.123-9.5,7.049-18.545,15.411-23.16,26.284-7.443,17.539-4.389,49.182,9.456,67.3,6.76,8.846,16.091,14.469,28.029,13.653,10.672-.73,20.217-7.307,27.032-15.515,3.189-3.841,5.959-8.2,6.922-13.1.864-4.394.224-8.927.245-13.406a45.61,45.61,0,0,1,7.7-25.067c3.94-5.862,9.2-10.729,13.36-16.434s7.277-12.765,5.958-19.708c-.948-4.989-4.114-9.354-8-12.638-6.915-5.841-16.016-8.463-25.14-8.463a48.919,48.919,0,0,0-9.671.972" transform="translate(-909.54 -679.546)" fill="none"/>
    </clipPath>
    <linearGradient id="linear-gradient" x1="-2.93" y1="1.334" x2="-2.927" y2="1.334" gradientUnits="objectBoundingBox">
      <stop offset="0" stop-color="#0f8cd9"/>
      <stop offset="0.003" stop-color="#0f8cd9"/>
      <stop offset="0.998" stop-color="#0d5991"/>
      <stop offset="1" stop-color="#0d5991"/>
    </linearGradient>
    <clipPath id="clip-path-2">
      <path id="Tracciato_896" data-name="Tracciato 896" d="M.289,1.512A1.27,1.27,0,0,0,.464,3.3l15.82,13.01A1.27,1.27,0,0,0,17.9,14.348L2.075,1.338a1.27,1.27,0,0,0-1.786.174" transform="translate(0 -1.049)" fill="none"/>
    </clipPath>
    <linearGradient id="linear-gradient-2" x1="0.103" y1="6.703" x2="0.161" y2="6.703" gradientUnits="objectBoundingBox">
      <stop offset="0" stop-color="#30eaff"/>
      <stop offset="1" stop-color="#194378"/>
    </linearGradient>
    <clipPath id="clip-path-3">
      <path id="Tracciato_897" data-name="Tracciato 897" d="M15.284,0a1.262,1.262,0,0,0-.939.464L1.338,16.288A1.27,1.27,0,0,0,3.3,17.9L16.305,2.076A1.271,1.271,0,0,0,15.366,0Z" transform="translate(-1.048)" fill="none"/>
    </clipPath>
    <linearGradient id="linear-gradient-3" x1="0.118" y1="6.95" x2="0.174" y2="6.95" xlink:href="#linear-gradient-2"/>
    <clipPath id="clip-path-4">
      <path id="Tracciato_898" data-name="Tracciato 898" d="M77.652,110.811l-.413,8.967a1.374,1.374,0,0,0,1.31,1.436h.087a1.373,1.373,0,0,0,1.347-1.311l.413-8.967a1.374,1.374,0,0,0-1.31-1.436h-.064a1.374,1.374,0,0,0-1.37,1.311" transform="translate(-77.237 -109.5)" fill="#f2f2f2"/>
    </clipPath>
    <clipPath id="clip-path-5">
      <path id="Tracciato_899" data-name="Tracciato 899" d="M78.5,92.529l-.434,9.422a1.374,1.374,0,1,0,2.745.126l.434-9.423a1.372,1.372,0,0,0-1.309-1.435H79.87A1.376,1.376,0,0,0,78.5,92.529" transform="translate(-78.063 -91.218)" fill="#f2f2f2"/>
    </clipPath>
    <clipPath id="clip-path-6">
      <path id="Tracciato_900" data-name="Tracciato 900" d="M65.331,104.438a1.373,1.373,0,0,0,1.31,1.435l9.858.454a1.374,1.374,0,1,0,.125-2.745l-9.858-.455H66.7a1.375,1.375,0,0,0-1.37,1.313" transform="translate(-65.33 -103.125)" fill="#f2f2f2"/>
    </clipPath>
    <clipPath id="clip-path-7">
      <path id="Tracciato_901" data-name="Tracciato 901" d="M83.275,105.262a1.374,1.374,0,0,0,1.309,1.436l9.424.434a1.375,1.375,0,0,0,1.435-1.309v-.087a1.377,1.377,0,0,0-1.311-1.35l-9.423-.433h-.064a1.374,1.374,0,0,0-1.37,1.311" transform="translate(-83.274 -103.951)" fill="#f2f2f2"/>
    </clipPath>
    <clipPath id="clip-path-8">
      <path id="Tracciato_902" data-name="Tracciato 902" d="M69.841,94.825a1.377,1.377,0,0,0-.09,1.942l6.356,6.97a1.374,1.374,0,0,0,2.029-1.853L71.78,94.915a1.371,1.371,0,0,0-.95-.447h-.062a1.375,1.375,0,0,0-.927.358" transform="translate(-69.394 -94.467)" fill="#f2f2f2"/>
    </clipPath>
    <clipPath id="clip-path-9">
      <path id="Tracciato_903" data-name="Tracciato 903" d="M82.172,108.35a1.373,1.373,0,0,0-.089,1.941l6.049,6.631a1.373,1.373,0,1,0,2.029-1.851l-6.049-6.631a1.373,1.373,0,0,0-.952-.448H83.1a1.365,1.365,0,0,0-.926.36" transform="translate(-81.724 -107.99)" fill="#f2f2f2"/>
    </clipPath>
    <clipPath id="clip-path-10">
      <path id="Tracciato_904" data-name="Tracciato 904" d="M89.268,95.638l-6.97,6.355a1.375,1.375,0,0,0,1.853,2.031l6.97-6.355a1.375,1.375,0,0,0-.864-2.388H90.2a1.371,1.371,0,0,0-.927.358" transform="translate(-81.852 -95.28)" fill="#f2f2f2"/>
    </clipPath>
    <clipPath id="clip-path-11">
      <path id="Tracciato_905" data-name="Tracciato 905" d="M76,107.741l-6.97,6.358a1.373,1.373,0,1,0,1.851,2.029l6.97-6.355a1.372,1.372,0,0,0-.863-2.386H76.92a1.366,1.366,0,0,0-.922.356" transform="translate(-68.581 -107.385)" fill="#f2f2f2"/>
    </clipPath>
    <clipPath id="clip-path-12">
      <rect id="Rettangolo_363" data-name="Rettangolo 363" width="193.083" height="138.707" fill="#0f8cd9"/>
    </clipPath>
    <clipPath id="clip-path-13">
      <path id="Tracciato_850" data-name="Tracciato 850" d="M13.17,53.927v0A28.987,28.987,0,0,1,58.183,17.387,28.989,28.989,0,0,1,13.17,53.927M35.279,0a36.161,36.161,0,0,0-3.708.23A35.646,35.646,0,0,0,.194,31.97,36.025,36.025,0,0,0,0,35.608v.215A35.658,35.658,0,0,0,35.59,71.311h.275A35.656,35.656,0,0,0,36,0Z" fill="#6ba8d6"/>
    </clipPath>
    <clipPath id="clip-path-14">
      <rect id="Rettangolo_362" data-name="Rettangolo 362" width="464.889" height="456.938" fill="#e5e5e5"/>
    </clipPath>
    <clipPath id="clip-path-15">
      <path id="Tracciato_728-2" data-name="Tracciato 728" d="M1015.277,681.264c-21.258,4.3-40.453,15.582-57.84,28.49-16.779,12.456-32.771,27.232-40.926,46.446-13.152,30.993-7.755,86.908,16.71,118.926,11.945,15.632,28.434,25.568,49.529,24.125,18.859-1.29,35.725-12.912,47.768-27.417,5.636-6.788,10.53-14.5,12.231-23.152,1.526-7.764.4-15.775.433-23.689a80.594,80.594,0,0,1,13.612-44.295c6.962-10.358,16.25-18.959,23.608-29.04s12.859-22.557,10.529-34.825c-1.675-8.816-7.27-16.53-14.14-22.333-12.22-10.321-28.3-14.954-44.425-14.954a86.433,86.433,0,0,0-17.089,1.718" fill="none"/>
    </clipPath>
    <clipPath id="clip-iPhone_14_Pro_1">
      <rect width="393" height="852"/>
    </clipPath>
  </defs>
  <g id="iPhone_14_Pro_1" data-name="iPhone 14 Pro – 1" clip-path="url(#clip-iPhone_14_Pro_1)">
    <rect width="393" height="852" fill="#fff"/>
    <g id="Raggruppa_2414" data-name="Raggruppa 2414" transform="translate(317.967 -44.26)">
      <g id="Raggruppa_1943" data-name="Raggruppa 1943" transform="translate(31.057 352.576)">
        <g id="Raggruppa_1734" data-name="Raggruppa 1734" transform="translate(0 0)" clip-path="url(#clip-path)">
          <rect id="Rettangolo_249" data-name="Rettangolo 249" width="164.691" height="161.38" transform="matrix(0.607, -0.795, 0.795, 0.607, -63.878, 79.002)" fill="url(#linear-gradient)"/>
        </g>
      </g>
      <g id="Raggruppa_1945" data-name="Raggruppa 1945" transform="translate(-186.704 142.509) rotate(-16)">
        <g id="Raggruppa_1946" data-name="Raggruppa 1946" transform="translate(0 0)">
          <path id="Tracciato_849" data-name="Tracciato 849" d="M324.513,221.044c-19.247,18.57-42.439,29.589-69.6,38.7-27.6,9.254-49.784,23.6-74.088,39.268-46.494,29.965-104.2,52.522-146.651,13.975C-1.2,280.858-13.5,211.511,18.486,164.176,29.55,147.805,44.551,137.657,61,130.917c12.739-5.217,24.843-6.839,32.432-19.218,15.818-25.805,10.607-60.084,26.517-86.957C133.841,1.286,154.5-7.2,179.556,6.749c34.517,19.221,53.008,60.627,88.278,78.355,31.7,15.937,82.962,30.415,88.286,72.16,1.9,14.9-4.9,29.58-13.345,42a137.552,137.552,0,0,1-18.262,21.779" transform="translate(0 0)" fill="#6ba8d6"/>
        </g>
      </g>
      <g id="Raggruppa_2001" data-name="Raggruppa 2001" transform="translate(-119.529 403.807)">
        <g id="Raggruppa_1980" data-name="Raggruppa 1980" transform="translate(0 1.408)">
          <g id="Raggruppa_1979" data-name="Raggruppa 1979" clip-path="url(#clip-path-2)">
            <rect id="Rettangolo_364" data-name="Rettangolo 364" width="23.097" height="24.094" transform="translate(-7.132 11.337) rotate(-58.392)" fill="url(#linear-gradient-2)"/>
          </g>
        </g>
        <g id="Raggruppa_1982" data-name="Raggruppa 1982" transform="translate(1.407)">
          <g id="Raggruppa_1981" data-name="Raggruppa 1981" clip-path="url(#clip-path-3)">
            <rect id="Rettangolo_365" data-name="Rettangolo 365" width="24.02" height="23.173" transform="matrix(0.524, -0.852, 0.852, 0.524, -8.389, 13.378)" fill="url(#linear-gradient-3)"/>
          </g>
        </g>
      </g>
      <g id="Raggruppa_2011" data-name="Raggruppa 2011" transform="translate(97.76 311.204)">
        <g id="Raggruppa_2003" data-name="Raggruppa 2003" transform="translate(15.981 24.537)">
          <g id="Raggruppa_1983" data-name="Raggruppa 1983" clip-path="url(#clip-path-4)">
            <rect id="Rettangolo_366" data-name="Rettangolo 366" width="11.669" height="8.889" transform="translate(-5.263 8.497) rotate(-58.392)" fill="#f2f2f2"/>
          </g>
        </g>
        <g id="Raggruppa_2004" data-name="Raggruppa 2004" transform="translate(17.089)">
          <g id="Raggruppa_1985" data-name="Raggruppa 1985" clip-path="url(#clip-path-5)">
            <rect id="Rettangolo_367" data-name="Rettangolo 367" width="12.096" height="9.162" transform="matrix(0.524, -0.852, 0.852, 0.524, -5.481, 8.852)" fill="#f2f2f2"/>
          </g>
        </g>
        <g id="Raggruppa_2005" data-name="Raggruppa 2005" transform="translate(0 15.981)">
          <g id="Raggruppa_1987" data-name="Raggruppa 1987" clip-path="url(#clip-path-6)">
            <rect id="Rettangolo_368" data-name="Rettangolo 368" width="9.396" height="12.488" transform="matrix(0.524, -0.852, 0.852, 0.524, -1.477, 2.346)" fill="#f2f2f2"/>
          </g>
        </g>
        <g id="Raggruppa_2006" data-name="Raggruppa 2006" transform="translate(24.083 17.089)">
          <g id="Raggruppa_1989" data-name="Raggruppa 1989" clip-path="url(#clip-path-7)">
            <rect id="Rettangolo_369" data-name="Rettangolo 369" width="9.135" height="12.079" transform="translate(-1.469 2.332) rotate(-58.392)" fill="#f2f2f2"/>
          </g>
        </g>
        <g id="Raggruppa_2007" data-name="Raggruppa 2007" transform="translate(5.454 4.361)">
          <g id="Raggruppa_1991" data-name="Raggruppa 1991" clip-path="url(#clip-path-8)">
            <rect id="Rettangolo_370" data-name="Rettangolo 370" width="13.335" height="13.184" transform="matrix(0.524, -0.852, 0.852, 0.524, -4.557, 7.158)" fill="#f2f2f2"/>
          </g>
        </g>
        <g id="Raggruppa_2008" data-name="Raggruppa 2008" transform="translate(22.003 22.51)">
          <g id="Raggruppa_1993" data-name="Raggruppa 1993" clip-path="url(#clip-path-9)">
            <rect id="Rettangolo_371" data-name="Rettangolo 371" width="12.889" height="12.749" transform="translate(-4.408 6.914) rotate(-58.393)" fill="#f2f2f2"/>
          </g>
        </g>
        <g id="Raggruppa_2009" data-name="Raggruppa 2009" transform="translate(22.175 5.452)">
          <g id="Raggruppa_1995" data-name="Raggruppa 1995" clip-path="url(#clip-path-10)">
            <rect id="Rettangolo_372" data-name="Rettangolo 372" width="13.135" height="13.385" transform="matrix(0.524, -0.852, 0.852, 0.524, -4.284, 6.714)" fill="#f2f2f2"/>
          </g>
        </g>
        <g id="Raggruppa_2010" data-name="Raggruppa 2010" transform="translate(4.363 21.698)">
          <g id="Raggruppa_1997" data-name="Raggruppa 1997" clip-path="url(#clip-path-11)">
            <rect id="Rettangolo_373" data-name="Rettangolo 373" width="13.135" height="13.386" transform="translate(-4.283 6.713) rotate(-58.393)" fill="#f2f2f2"/>
          </g>
        </g>
      </g>
    </g>
    <g id="Raggruppa_1978" data-name="Raggruppa 1978" transform="translate(7.917 640.505)" opacity="0.479">
      <g id="Raggruppa_1977" data-name="Raggruppa 1977" clip-path="url(#clip-path-12)">
        <path id="Tracciato_895" data-name="Tracciato 895" d="M191.961,58.682c3.082-16.1.1-31.864-12.508-44.17C168.181,3.509,151.6-.518,135.9.053c-7.348.267-14.855,1.506-21.177,5.254C109.048,8.669,104.7,13.819,99.76,18.19A67.162,67.162,0,0,1,64.679,34.324c-10.3,1.425-20.8.43-31.151,1.454S12.371,40.313,6.042,48.572C1.495,54.507-.192,62.266.017,69.757c.5,18.074,11.455,34.748,25.928,45.572s32.141,16.484,49.816,20.121c17.056,3.51,35.115,5.243,51.582-.358,26.56-9.034,58.306-43.432,64.618-76.41" transform="translate(0 0)" fill="#0f8cd9"/>
      </g>
    </g>
    <g id="Raggruppa_1965" data-name="Raggruppa 1965" transform="translate(95.588 780.902)" style="isolation: isolate">
      <g id="Raggruppa_1948" data-name="Raggruppa 1948">
        <g id="Raggruppa_1947" data-name="Raggruppa 1947" clip-path="url(#clip-path-13)">
          <rect id="Rettangolo_353" data-name="Rettangolo 353" width="95.663" height="96.047" transform="translate(-28.025 57.698) rotate(-64.094)" fill="#6ba8d6"/>
        </g>
      </g>
    </g>
    <g id="Raggruppa_1976" data-name="Raggruppa 1976" transform="matrix(0.999, 0.035, -0.035, 0.999, -360.147, 426)">
      <g id="Raggruppa_1975" data-name="Raggruppa 1975" clip-path="url(#clip-path-14)">
        <path id="Tracciato_859" data-name="Tracciato 859" d="M344.494,107.859c-.761-1.629-1.486-3.26-2.217-4.9C311.245,133.26,131.824,308.345,48.266,389.9c1.907.513,3.817,1,5.717,1.474L344.494,107.859" transform="translate(26.133 55.744)" fill="#e5e5e5"/>
        <path id="Tracciato_860" data-name="Tracciato 860" d="M261.09,276.54a253.869,253.869,0,0,0,34.4-26.531l.028-.023L302,243.653l.119-.119c6.576-6.829,12.455-14.46,16.364-23.007L261.09,276.54" transform="translate(141.363 119.401)" fill="#e5e5e5"/>
        <path id="Tracciato_861" data-name="Tracciato 861" d="M236.781,304.51q7.487-3.484,14.725-7.32l.009,0c36.928-36.043,18.4-17.964,84.262-82.242a2.309,2.309,0,0,0,.052-.257,55.685,55.685,0,0,0,.857-7.675c-71.168,69.448-49,47.811-99.907,97.5" transform="translate(128.201 112.084)" fill="#e5e5e5"/>
        <path id="Tracciato_862" data-name="Tracciato 862" d="M346.242,203.583l0-.011a39.05,39.05,0,0,0-1.278-5.791c-78.357,76.461-51.208,49.966-126.65,123.592q6.046-2.224,11.992-4.646l.011,0c65.782-64.2,39.265-38.325,115.93-113.141" transform="translate(118.2 107.085)" fill="#e5e5e5"/>
        <path id="Tracciato_863" data-name="Tracciato 863" d="M351.173,195.239a52.231,52.231,0,0,0-2.482-4.643c-84.007,81.983-52.339,51.074-146.43,142.917q5.332-1.6,10.619-3.323c6.4-6.244,132.713-129.507,138.293-134.951" transform="translate(109.511 103.195)" fill="#e5e5e5"/>
        <path id="Tracciato_864" data-name="Tracciato 864" d="M353.042,188.529c-.982-1.352-2.018-2.684-3.1-4.022C318.794,214.9,219.5,311.788,187.632,342.894c.495-.12,9.316-2.3,9.79-2.486.769-.752,154.834-151.111,155.62-151.879" transform="translate(101.59 99.898)" fill="#e5e5e5"/>
        <path id="Tracciato_865" data-name="Tracciato 865" d="M353.229,182.674c-1.085-1.253-2.21-2.514-3.348-3.781-60.452,59-100.489,98.072-175.87,171.637q4.58-.9,9.153-1.879c22.522-21.987-5.068,4.939,170.065-165.977" transform="translate(94.215 96.859)" fill="#e5e5e5"/>
        <path id="Tracciato_866" data-name="Tracciato 866" d="M352.645,177.139q-1.674-1.861-3.339-3.784C286.438,234.7,223.271,296.34,161.116,357c2.892-.442,5.771-.914,8.666-1.4,149.767-146.153,62.046-60.541,182.863-178.455" transform="translate(87.234 93.86)" fill="#e5e5e5"/>
        <path id="Tracciato_867" data-name="Tracciato 867" d="M351.855,171.582q-1.621-1.951-3.206-3.931c-142.658,139.238-56.95,55.576-199.8,194.99,2.762-.319,5.515-.66,8.282-1.028l.011,0C285.756,236.071,278.713,242.95,351.855,171.582" transform="translate(80.591 90.772)" fill="#e5e5e5"/>
        <path id="Tracciato_868" data-name="Tracciato 868" d="M351.057,165.83q-1.565-1.993-3.111-4.017c-85.6,83.538-107.8,105.2-210.868,205.792,2.644-.225,5.289-.452,7.946-.706l.011,0c91.712-89.513,134.5-131.264,206.022-201.065" transform="translate(74.219 87.611)" fill="#e5e5e5"/>
        <path id="Tracciato_869" data-name="Tracciato 869" d="M350.233,159.946c-1.008-1.355-2.019-2.719-3-4.106C154.041,344.357,225.579,274.552,125.754,371.957q3.82-.176,7.67-.421c157.6-153.806,69.123-67.469,216.809-211.59" transform="translate(68.087 84.377)" fill="#e5e5e5"/>
        <path id="Tracciato_870" data-name="Tracciato 870" d="M349.405,153.915c-.985-1.387-1.948-2.782-2.918-4.188L189.981,302.452,114.819,375.8q3.69-.051,7.39-.168c69.5-67.818,72.814-71.043,227.2-221.72" transform="translate(62.167 81.067)" fill="#e5e5e5"/>
        <path id="Tracciato_871" data-name="Tracciato 871" d="M348.61,147.779c-.942-1.427-1.887-2.866-2.822-4.308L104.24,379.193q3.575.065,7.163.065c143.749-140.264,39.051-38.106,237.207-231.479" transform="translate(56.439 77.68)" fill="#e5e5e5"/>
        <path id="Tracciato_872" data-name="Tracciato 872" d="M347.844,141.485l0-.011c-.919-1.46-1.824-2.915-2.711-4.387-24.062,23.479-227.061,221.57-251.121,245.06q3.44.169,6.93.285L347.844,141.485" transform="translate(50.899 74.224)" fill="#e5e5e5"/>
        <path id="Tracciato_873" data-name="Tracciato 873" d="M347.108,135.054q-1.329-2.245-2.628-4.5L84.129,384.646c2.334.216,4.561.4,6.664.544C136.054,341,238.853,240.7,347.108,135.054" transform="translate(45.55 70.685)" fill="#e5e5e5"/>
        <path id="Tracciato_874" data-name="Tracciato 874" d="M346.4,128.473c-.86-1.52-1.7-3.047-2.531-4.589C339.8,127.822,112.253,349.9,74.63,386.608q3.3.439,6.422.794C142.8,327.148,154.247,315.956,346.4,128.473" transform="translate(40.407 67.075)" fill="#e5e5e5"/>
        <path id="Tracciato_875" data-name="Tracciato 875" d="M345.7,121.743q-1.239-2.333-2.419-4.692c-.746.728-232.659,227.053-277.765,271.08,2.082.362,4.148.708,6.172,1.034C237.042,227.775,345.7,121.743,345.7,121.743" transform="translate(35.471 63.375)" fill="#e5e5e5"/>
        <path id="Tracciato_876" data-name="Tracciato 876" d="M345.06,114.887q-1.175-2.4-2.309-4.806C333.786,118.833,66.371,379.8,56.719,389.224c1.987.447,3.972.86,5.939,1.256,72.387-70.649,259.22-252.952,282.4-275.593" transform="translate(30.71 59.602)" fill="#e5e5e5"/>
        <path id="Tracciato_877" data-name="Tracciato 877" d="M343.968,100.7c-.708-1.674-1.41-3.337-2.1-5.02C336.461,100.957,45.91,384.5,40.167,390.1q2.717.9,5.461,1.719c130.851-127.7,118.952-116.073,298.34-291.121" transform="translate(21.748 51.802)" fill="#e5e5e5"/>
        <path id="Tracciato_878" data-name="Tracciato 878" d="M343.47,93.337q-1.006-2.55-1.97-5.118C285.455,142.931,110.566,313.581,32.483,389.785c1.708.7,3.439,1.367,5.172,2.01C80.033,350.434,299.7,136.07,343.47,93.337" transform="translate(17.587 47.765)" fill="#e5e5e5"/>
        <path id="Tracciato_879" data-name="Tracciato 879" d="M343.009,85.834q-.957-2.606-1.861-5.232L25.261,388.878c1.582.8,3.2,1.578,4.846,2.326,85.267-83.236,294.75-287.659,312.9-305.37" transform="translate(13.677 43.641)" fill="#e5e5e5"/>
        <path id="Tracciato_880" data-name="Tracciato 880" d="M342.523,78.159c-.6-1.777-1.168-3.564-1.733-5.353C186.707,223.173,151.165,257.829,18.569,387.26c1.452.919,2.933,1.825,4.459,2.691L342.523,78.159" transform="translate(10.054 39.42)" fill="#e5e5e5"/>
        <path id="Tracciato_881" data-name="Tracciato 881" d="M341.978,70.313c-.546-1.833-1.076-3.659-1.591-5.5-106.239,103.675-1.877,1.85-327.863,319.957,1.279,1.082,2.605,2.133,3.992,3.16C147.672,259.951,71.9,333.863,341.978,70.313" transform="translate(6.781 35.09)" fill="#e5e5e5"/>
        <path id="Tracciato_882" data-name="Tracciato 882" d="M341.308,62.258q-.751-2.809-1.454-5.64C278.02,116.945,265.167,129.508,7.29,381.161c1.062,1.286,2.2,2.528,3.4,3.736,44.577-43.5,284.347-277.5,330.616-322.639" transform="translate(3.947 30.655)" fill="#e5e5e5"/>
        <path id="Tracciato_883" data-name="Tracciato 883" d="M340.374,53.985c-.012-.031-.011-.055-.022-.086-.439-1.862-.871-3.74-1.316-5.648C180.136,203.293,119.879,262.12,3.125,376.043a47.728,47.728,0,0,0,2.6,4.515c78.3-76.392,270.932-264.387,334.651-326.573" transform="translate(1.692 26.125)" fill="#e5e5e5"/>
        <path id="Tracciato_884" data-name="Tracciato 884" d="M338.728,45.585q-.7-2.814-1.454-5.64C262.118,113.279,74.12,296.754.49,368.614a40.007,40.007,0,0,0,1.45,5.629C54.252,323.185,286.36,96.685,338.728,45.585" transform="translate(0.265 21.628)" fill="#e5e5e5"/>
        <path id="Tracciato_885" data-name="Tracciato 885" d="M335.609,37.325q-.8-2.719-1.682-5.409L.931,356.867l0,.011A37.616,37.616,0,0,0,0,364.832C36.554,329.163,297.643,74.379,335.609,37.325" transform="translate(0 17.28)" fill="#e5e5e5"/>
        <path id="Tracciato_886" data-name="Tracciato 886" d="M302.268,29.4c-.644-1.723-1.315-3.424-2.018-5.087C277.224,46.786,103.655,216.181,83.242,236.088c-.388.922-14.414,19.313-29.008,35.367C79.8,246.511,278.574,52.523,302.268,29.4" transform="translate(29.364 13.164)" fill="#e5e5e5"/>
        <path id="Tracciato_887" data-name="Tracciato 887" d="M42.351,209.03c-8.581,7.393-16.069,13.148-23.787,20.6a94.319,94.319,0,0,0-13.512,15.8c35.979-35.1,29.326-28.611,37.3-36.4" transform="translate(2.735 113.176)" fill="#e5e5e5"/>
        <path id="Tracciato_888" data-name="Tracciato 888" d="M280.784,21.978c-.78-1.586-1.606-3.143-2.471-4.647C160.253,132.555,222.73,71.568,95.536,195.7q-5.077,8.782-10.522,17.321c165-161.007,141.709-138.282,195.77-191.047" transform="translate(46.029 9.384)" fill="#e5e5e5"/>
        <path id="Tracciato_889" data-name="Tracciato 889" d="M267.522,15.2q-1.454-2.109-3.061-4.072C154.48,118.472,165.709,107.5,105.411,166.35c-2.207,4.61-4.469,9.172-6.822,13.708C205.435,75.79,182.468,98.194,267.522,15.2" transform="translate(53.379 6.027)" fill="#e5e5e5"/>
        <path id="Tracciato_890" data-name="Tracciato 890" d="M255.229,9.272a48.147,48.147,0,0,0-3.818-3.323C231.745,25.137,133.851,120.656,112.674,141.336q-2.4,5.986-4.956,11.9L255.229,9.272" transform="translate(58.322 3.221)" fill="#e5e5e5"/>
        <path id="Tracciato_891" data-name="Tracciato 891" d="M242.392,4.427a43.28,43.28,0,0,0-4.809-2.352c-70.86,69.15-117.7,114.858-119.31,116.425-1.253,3.607-2.516,7.219-3.837,10.8,90.058-87.9,61.34-59.874,127.956-124.876" transform="translate(61.96 1.123)" fill="#e5e5e5"/>
        <path id="Tracciato_892" data-name="Tracciato 892" d="M227.811.994A40.572,40.572,0,0,0,221.6,0c-55.248,53.907-34.043,33.215-97.926,95.557l0,.014c-1.275,3.556-2.522,7.114-3.76,10.7L227.811.994" transform="translate(64.921)" fill="#e5e5e5"/>
        <path id="Tracciato_893" data-name="Tracciato 893" d="M209.33.017a58.359,58.359,0,0,0-8.655,1.4c-45.529,44.426-29.514,28.8-69.822,68.133l-.006.015c-1.8,3.952-3.487,7.966-5.1,12.022.379-.371,31.344-30.588,83.58-81.57" transform="translate(68.085 0.009)" fill="#e5e5e5"/>
        <path id="Tracciato_894" data-name="Tracciato 894" d="M181.5,4.154a92.119,92.119,0,0,0-25.19,17.73,132.4,132.4,0,0,0-21.338,27.681C159.319,25.808,149.023,35.857,181.5,4.154" transform="translate(73.078 2.249)" fill="#e5e5e5"/>
      </g>
    </g>
    <g id="Raggruppa_2413" data-name="Raggruppa 2413" transform="translate(-1006.473 -789.468)">
      <g id="Raggruppa_1734-2" data-name="Raggruppa 1734" clip-path="url(#clip-path-15)">
        <rect id="Rettangolo_249-2" data-name="Rettangolo 249" width="291.022" height="285.17" transform="matrix(0.607, -0.795, 0.795, 0.607, 796.663, 819.148)" fill="url(#linear-gradient)"/>
      </g>
    </g>
  </g>
</svg>
