<svg xmlns="http://www.w3.org/2000/svg" width="767.85" height="739.938" viewBox="0 0 767.85 739.938">
  <g id="Raggruppa_1945" data-name="Raggruppa 1945" transform="translate(-1.296 172.894) rotate(-16)">
    <g id="Raggruppa_1946" data-name="Raggruppa 1946">
      <path id="Tracciato_849" data-name="Tracciato 849" d="M573.939,391.1c-34.011,32.815-74.993,52.287-122.99,68.377-48.774,16.352-87.972,41.708-130.92,69.39-82.159,52.95-184.132,92.81-259.143,24.695C-1.627,496.8-23.36,374.257,33.166,290.612c19.551-28.928,46.059-46.86,75.133-58.77,22.511-9.22,43.9-12.086,57.309-33.96,27.952-45.6,18.743-106.173,46.858-153.659,24.542-41.449,61.054-56.446,105.323-31.8,60.993,33.965,93.668,107.132,155.993,138.458,56.024,28.161,146.6,53.746,156.008,127.512,3.358,26.336-8.65,52.27-23.581,74.222A243.063,243.063,0,0,1,573.939,391.1" transform="translate(0.547 0.547)" fill="#6ba8d6"/>
    </g>
  </g>
</svg>
