<svg xmlns="http://www.w3.org/2000/svg" xmlns:xlink="http://www.w3.org/1999/xlink" width="193.083" height="138.707" viewBox="0 0 193.083 138.707">
  <defs>
    <clipPath id="clip-path">
      <rect id="Rettangolo_363" data-name="Rettangolo 363" width="193.083" height="138.707" fill="#0f8cd9"/>
    </clipPath>
  </defs>
  <g id="Raggruppa_1978" data-name="Raggruppa 1978" opacity="0.479">
    <g id="Raggruppa_1977" data-name="Raggruppa 1977" clip-path="url(#clip-path)">
      <path id="Tracciato_895" data-name="Tracciato 895" d="M191.961,58.682c3.082-16.1.1-31.864-12.508-44.17C168.181,3.509,151.6-.518,135.9.053c-7.348.267-14.855,1.506-21.177,5.254C109.048,8.669,104.7,13.819,99.76,18.19A67.162,67.162,0,0,1,64.679,34.324c-10.3,1.425-20.8.43-31.151,1.454S12.371,40.313,6.042,48.572C1.495,54.507-.192,62.266.017,69.757c.5,18.074,11.455,34.748,25.928,45.572s32.141,16.484,49.816,20.121c17.056,3.51,35.115,5.243,51.582-.358,26.56-9.034,58.306-43.432,64.618-76.41" transform="translate(0 0)" fill="#0f8cd9"/>
    </g>
  </g>
</svg>
