<svg xmlns="http://www.w3.org/2000/svg" xmlns:xlink="http://www.w3.org/1999/xlink" width="181.933" height="219.844" viewBox="0 0 181.933 219.844">
  <defs>
    <clipPath id="clip-path">
      <path id="Tracciato_728" data-name="Tracciato 728" d="M1015.277,681.264c-21.258,4.3-40.453,15.582-57.84,28.49-16.779,12.456-32.771,27.232-40.926,46.446-13.152,30.993-7.755,86.908,16.71,118.926,11.945,15.632,28.434,25.568,49.529,24.125,18.859-1.29,35.725-12.912,47.768-27.417,5.636-6.788,10.53-14.5,12.231-23.152,1.526-7.764.4-15.775.433-23.689a80.594,80.594,0,0,1,13.612-44.295c6.962-10.358,16.25-18.959,23.608-29.04s12.859-22.557,10.529-34.825c-1.675-8.816-7.27-16.53-14.14-22.333-12.22-10.321-28.3-14.954-44.425-14.954a86.433,86.433,0,0,0-17.089,1.718" fill="none"/>
    </clipPath>
    <linearGradient id="linear-gradient" x1="-2.93" y1="1.334" x2="-2.927" y2="1.334" gradientUnits="objectBoundingBox">
      <stop offset="0" stop-color="#0f8cd9"/>
      <stop offset="0.003" stop-color="#0f8cd9"/>
      <stop offset="0.998" stop-color="#0d5991"/>
      <stop offset="1" stop-color="#0d5991"/>
    </linearGradient>
  </defs>
  <g id="Raggruppa_1943" data-name="Raggruppa 1943" transform="translate(-909.54 -679.546)">
    <g id="Raggruppa_1734" data-name="Raggruppa 1734" clip-path="url(#clip-path)">
      <rect id="Rettangolo_249" data-name="Rettangolo 249" width="291.022" height="285.17" transform="matrix(0.607, -0.795, 0.795, 0.607, 796.663, 819.148)" fill="url(#linear-gradient)"/>
    </g>
  </g>
</svg>
