<svg xmlns="http://www.w3.org/2000/svg" xmlns:xlink="http://www.w3.org/1999/xlink" width="104.538" height="55.627" viewBox="0 0 104.538 55.627">
  <defs>
    <clipPath id="clip-path">
      <rect id="Rettangolo_474" data-name="Rettangolo 474" width="104.538" height="55.627" fill="#ffba00" stroke="#ffba00" stroke-width="1"/>
    </clipPath>
  </defs>
  <g id="Raggruppa_2328" data-name="Raggruppa 2328" transform="translate(0 0)">
    <g id="Raggruppa_2328-2" data-name="Raggruppa 2328" transform="translate(0 0)" clip-path="url(#clip-path)">
      <path id="Tracciato_1454" data-name="Tracciato 1454" d="M10.514,7.846C9.469,9.585,8.4,11.309,7.385,13.066c-1.6,2.766-3.157,5.553-4.733,8.331-.089.158-.176.317-.268.472-.363.612-.825,1.069-1.609.832-.642-.193-.963-.922-.658-1.835a15.685,15.685,0,0,1,1.246-2.8q4.8-8.4,9.658-16.764c.986-1.706,2.308-1.763,3.242-.02,1.364,2.547,2.607,5.161,3.824,7.784.837,1.8,1.542,3.667,2.305,5.5a7.474,7.474,0,0,1,.4,1.006A1.36,1.36,0,0,1,20,17.359c-.771.266-1.309-.169-1.7-1.125-1.259-3.063-2.57-6.1-3.873-9.147a4.378,4.378,0,0,0-.541-.7,3.925,3.925,0,0,0-.308,2.355c.341,3.539.614,7.092,1.155,10.6A63.586,63.586,0,0,0,18.2,32.628C21.453,41.046,27.047,47.366,35.388,51a22.6,22.6,0,0,0,17.46.416c.451-.167.893-.363,1.328-.57a4.043,4.043,0,0,0,.589-.494c-.481-.4-.915-.774-1.356-1.136a22.421,22.421,0,0,1-8.236-14.24c-1.041-6.738,1.048-12.426,6.5-16.639a11.168,11.168,0,0,1,12.892-.778,11.677,11.677,0,0,1,4.089,4.508c3.308,6.1,2.978,12.285.177,18.441a24.264,24.264,0,0,1-6.964,8.676c-.325.266-.637.549-.937.843-.075.073-.077.219-.162.484.732.238,1.455.511,2.2.705a21.81,21.81,0,0,0,13.839-1,41.9,41.9,0,0,0,11.478-7.114,39.3,39.3,0,0,0,13.092-19.742,14.793,14.793,0,0,0,.776-5.876c-.092-.734.1-1.344.888-1.553a1.252,1.252,0,0,1,1.43,1.291,17.413,17.413,0,0,1-.108,4.131,36.706,36.706,0,0,1-7,16.105A49.245,49.245,0,0,1,81.339,51.05C76.216,53.813,70.78,55.214,64.954,54.3a37.254,37.254,0,0,1-6.069-1.713,2.592,2.592,0,0,0-2.206.027c-10.773,5.2-20.731,3.5-29.924-3.747a34.324,34.324,0,0,1-11.44-16.381A82.221,82.221,0,0,1,10.909,8.724c-.007-.238.029-.477.045-.716l-.44-.162M54.674,46.9c.662.5,1.13.886,1.624,1.23,1.247.869,1.329.861,2.535.014a24.855,24.855,0,0,0,5.957-6,18.631,18.631,0,0,0,3.536-10.64A14.843,14.843,0,0,0,65.444,22a8.057,8.057,0,0,0-9.816-2.8,11.036,11.036,0,0,0-2.937,1.73A13.734,13.734,0,0,0,47.6,32.584,20.161,20.161,0,0,0,54.674,46.9" transform="translate(0 0)" fill="#ffba00" stroke="#ffba00" stroke-width="1"/>
    </g>
  </g>
</svg>
