<svg xmlns="http://www.w3.org/2000/svg" xmlns:xlink="http://www.w3.org/1999/xlink" width="285.746" height="111.193" viewBox="0 0 285.746 111.193">
  <defs>
    <clipPath id="clip-path">
      <rect id="Rettangolo_473" data-name="Rettangolo 473" width="283.935" height="106.254" fill="#ffe200"/>
    </clipPath>
  </defs>
  <g id="Raggruppa_2332" data-name="Raggruppa 2332" transform="translate(1.854 0) rotate(1)">
    <g id="Raggruppa_2325" data-name="Raggruppa 2325" transform="translate(0 0)" clip-path="url(#clip-path)">
      <path id="Tracciato_1453" data-name="Tracciato 1453" d="M176.114,97.193c26.836.632,47.3.126,67.59-4.058,7.3-1.506,14.517-4.206,21.631-7.061,3.147-1.265,6.173-3.826,8.842-6.591,4.405-4.563,4.686-9.584.849-14.952a56.592,56.592,0,0,0-8.579-9.422c-7.991-7.061-16.767-11.822-25.611-16.256-21.84-10.952-44.356-18-67.234-22.96A307.354,307.354,0,0,0,95.274,9a316.581,316.581,0,0,0-57.7,7.474Q21.408,20.19,5.237,23.858c-.138.031-.275.08-.414.106C2,24.495.327,23.456.038,21c-.282-2.4,1.006-4.03,3.953-4.817C22.428,11.261,40.853,6.157,59.546,3.557A331.281,331.281,0,0,1,119.993.272,321.739,321.739,0,0,1,221.205,21.039c13.121,5.008,26.07,10.867,38.342,19.176a137.7,137.7,0,0,1,16.234,13.513,30,30,0,0,1,5.777,8.474c3.516,7.119,3.154,14.974-1.244,21.019a39.015,39.015,0,0,1-8.879,8.73c-7.581,5.389-15.866,7.678-24.2,9.359-26.735,5.4-53.605,5.82-80.522,3.9-10.912-.78-21.833-1.457-32.726-2.626-14.1-1.515-28.21-3.106-42.261-5.348-13.209-2.107-26.4-4.674-39.5-7.876-7.408-1.811-14.688-4.956-21.867-8.2a31.134,31.134,0,0,1-9.545-7.248c-6.356-6.843-6.687-16.295-1.257-24.61a33.4,33.4,0,0,1,11.561-10.53c9.6-5.711,19.679-9.109,29.883-11.717a131.686,131.686,0,0,1,42.692-3.78c3.573.269,5.178,1.652,5.008,4.365-.154,2.474-1.654,3.6-5.013,3.763-8.539.411-17.1.387-25.612,1.322A115.393,115.393,0,0,0,35.543,45.717a39.164,39.164,0,0,0-8.913,6.508c-6.306,6.206-6.076,12.315.634,17.41a49.743,49.743,0,0,0,10.075,5.82,133.613,133.613,0,0,0,33.317,9.4c21.434,3.389,42.888,6.635,64.38,9.165,15.769,1.857,31.613,2.476,41.078,3.176" transform="translate(0 0.001)" fill="#ffe200"/>
    </g>
  </g>
</svg>
