<svg xmlns="http://www.w3.org/2000/svg" xmlns:xlink="http://www.w3.org/1999/xlink" width="304.684" height="16.898" viewBox="0 0 304.684 16.898">
  <defs>
    <clipPath id="clip-path">
      <rect id="Rettangolo_476" data-name="Rettangolo 476" width="304.684" height="16.898" fill="#0f8cd9"/>
    </clipPath>
  </defs>
  <g id="Raggruppa_2331" data-name="Raggruppa 2331" transform="translate(0 0)">
    <g id="Raggruppa_2330" data-name="Raggruppa 2330" transform="translate(0 0)" clip-path="url(#clip-path)">
      <path id="Tracciato_1457" data-name="Tracciato 1457" d="M49.172,11.631c8.231,0,16.464.13,24.694-.025,22.866-.432,45.73-1.04,68.6-1.468,12.12-.225,24.248-.542,36.363-.248,20.486.5,40.966,1.379,61.444,2.231,12.236.511,24.464,1.319,36.7,1.9,3.568.168,7.18.49,10.91-.848-.375.61-.662,1.6-1.139,1.766-2.263.778-4.569,1.814-6.874,1.87-6.994.176-14,.093-20.991-.17-13.36-.5-26.713-1.348-40.076-1.772-20.108-.635-40.223-1.429-60.337-1.417-21.489.012-42.978,1.106-64.47,1.309-17.742.168-35.487-.188-53.229-.49-7.992-.136-15.982-.645-23.968-1.1-3.241-.186-6.471-.666-9.7-1.071A9.552,9.552,0,0,1,5.1,11.261c1.919-1.789,4.405.409,5.612-2.215,1.273,1.491,2.851,1.516,4.464,1.423,6.361-.37,12.728-.618,19.082-1.111C53.209,7.886,72.153,6.32,91.1,4.79a6.73,6.73,0,0,0,2.969-.73c-7.7,0-15.4-.083-23.1.023-8,.112-15.992.409-23.987.616-7.87.2-15.744.3-23.61.622C15.6,5.638,7.843,6.236.088,5.737.059,5.319.029,4.9,0,4.484a8.2,8.2,0,0,1,1.774-.461c24.853-.91,49.7-1.921,74.556-2.645C98.318.738,120.312.164,142.3.035c20.615-.12,41.239.052,61.845.7,20.1.635,40.2,1.925,60.288,3.148,12.225.742,24.432,1.892,36.645,2.889a6.441,6.441,0,0,1,3.6,1.324c-3.46.165-6.922.538-10.378.463-21.614-.474-43.222-1.185-64.838-1.555-29.862-.511-59.721-1.793-89.594-.5-15.732.68-31.484.676-47.217,1.355-14.471.622-28.927,1.741-43.39,2.641-.032.376-.062.751-.095,1.125m49.111-8.2c0,.12,0,.238,0,.358h18.982c0-.12,0-.238,0-.358Z" transform="translate(0 -0.001)" fill="#0f8cd9"/>
    </g>
  </g>
</svg>
