<svg xmlns="http://www.w3.org/2000/svg" xmlns:xlink="http://www.w3.org/1999/xlink" width="1920" height="1080" viewBox="0 0 1920 1080">
  <defs>
    <clipPath id="clip-path">
      <rect id="Rettangolo_503" data-name="Rettangolo 503" width="1920" height="1080" fill="#f2f2f2"/>
    </clipPath>
    <clipPath id="clip-path-2">
      <rect id="Rettangolo_376" data-name="Rettangolo 376" width="579.441" height="561.452" fill="#e5e5e5"/>
    </clipPath>
    <clipPath id="clip-path-3">
      <rect id="Rettangolo_378" data-name="Rettangolo 378" width="697.011" height="685.091" fill="#e5e5e5"/>
    </clipPath>
    <clipPath id="clip-path-4">
      <path id="Tracciato_850" data-name="Tracciato 850" d="M13.17,53.927v0A28.987,28.987,0,0,1,58.183,17.387,28.989,28.989,0,0,1,13.17,53.927M35.279,0a36.161,36.161,0,0,0-3.708.23A35.646,35.646,0,0,0,.194,31.97,36.025,36.025,0,0,0,0,35.608v.215A35.658,35.658,0,0,0,35.59,71.311h.275A35.656,35.656,0,0,0,36,0Z" fill="#fafafa"/>
    </clipPath>
    <clipPath id="clip-Web_1920_2">
      <rect width="1920" height="1080"/>
    </clipPath>
  </defs>
  <g id="Web_1920_2" data-name="Web 1920 – 2" clip-path="url(#clip-Web_1920_2)">
    <rect width="1920" height="1080" fill="#fff"/>
    <g id="Gruppo_di_maschere_684" data-name="Gruppo di maschere 684" clip-path="url(#clip-path)">
      <rect id="Rettangolo_498" data-name="Rettangolo 498" width="1920" height="1080" fill="#f2f2f2"/>
      <g id="Raggruppa_2415" data-name="Raggruppa 2415">
        <g id="Raggruppa_2044" data-name="Raggruppa 2044" transform="translate(1652.213 1146.813) rotate(-120)">
          <path id="Tracciato_849" data-name="Tracciato 849" d="M301.038,205.214c-17.825,17.2-39.3,27.4-64.459,35.836-25.562,8.57-46.106,21.859-68.615,36.367-43.059,27.751-96.5,48.641-135.816,12.942C-.615,260.609-12,196.385,17.62,152.547,27.867,137.386,41.76,127.987,57,121.745c11.8-4.832,23.008-6.334,30.035-17.8,14.65-23.9,9.823-55.645,24.558-80.532,12.862-21.723,32-29.583,55.2-16.664,31.967,17.8,49.091,56.147,81.756,72.566,29.362,14.759,76.833,28.168,81.763,66.828,1.76,13.8-4.534,27.394-12.359,38.9a127.391,127.391,0,0,1-16.913,20.17" transform="translate(0.547 0.547)" fill="#efefef"/>
        </g>
        <g id="Raggruppa_2416" data-name="Raggruppa 2416" transform="translate(-49.789 586.867) rotate(-120)" opacity="0.717">
          <path id="Tracciato_849-2" data-name="Tracciato 849" d="M437,297.827c-25.889,24.979-57.084,39.8-93.62,52.049-37.127,12.447-66.964,31.748-99.656,52.82-62.539,40.306-140.161,70.647-197.26,18.8C-1.119,378.283-17.662,285,25.366,221.333c14.882-22.02,35.06-35.67,57.191-44.736,17.136-7.018,33.417-9.2,43.624-25.851,21.277-34.711,14.267-80.819,35.669-116.965C180.53,2.23,208.323-9.186,242.021,9.578c46.428,25.854,71.3,81.549,118.742,105.395,42.645,21.437,111.592,40.911,118.754,97.062,2.556,20.047-6.585,39.788-17.95,56.5A185.025,185.025,0,0,1,437,297.827" transform="translate(0.547 0.547)" fill="#efefef"/>
        </g>
        <g id="Raggruppa_2032" data-name="Raggruppa 2032" transform="matrix(0.999, 0.035, -0.035, 0.999, 1539.594, 4.103)" opacity="0.424" clip-path="url(#clip-path-2)">
          <path id="Tracciato_909" data-name="Tracciato 909" d="M417.487,108.98c-.949-2-1.852-4.006-2.763-6.023C376.046,140.191,152.413,355.323,48.266,455.529c2.377.631,4.757,1.233,7.126,1.811l362.1-348.36" transform="translate(44.465 92.044)" fill="#e5e5e5"/>
          <path id="Tracciato_910" data-name="Tracciato 910" d="M261.09,289.351a315.926,315.926,0,0,0,42.871-32.6l.035-.028,8.085-7.781.148-.146c8.2-8.39,15.524-17.768,20.4-28.27-8.04,7.735-59.972,57.7-71.534,68.824" transform="translate(240.531 197.152)" fill="#e5e5e5"/>
          <path id="Tracciato_911" data-name="Tracciato 911" d="M236.781,326.811q9.332-4.281,18.354-8.995l.012,0c46.027-44.287,22.938-22.073,105.025-101.053a2.8,2.8,0,0,0,.065-.316,67.489,67.489,0,0,0,1.068-9.43c-88.7,85.332-61.071,58.746-124.524,119.8" transform="translate(218.136 185.07)" fill="#e5e5e5"/>
          <path id="Tracciato_912" data-name="Tracciato 912" d="M377.766,204.91l-.006-.013a47.4,47.4,0,0,0-1.593-7.116c-97.665,93.95-63.826,61.394-157.858,151.861q7.536-2.733,14.947-5.709l.013,0c81.992-78.889,48.94-47.091,144.5-139.02" transform="translate(201.118 176.817)" fill="#e5e5e5"/>
          <path id="Tracciato_913" data-name="Tracciato 913" d="M387.866,196.3a63.876,63.876,0,0,0-3.093-5.7C280.066,291.33,319.536,253.352,202.261,366.2q6.646-1.972,13.236-4.083c7.977-7.673,165.414-159.128,172.369-165.818" transform="translate(186.334 170.393)" fill="#e5e5e5"/>
          <path id="Tracciato_914" data-name="Tracciato 914" d="M393.8,189.448c-1.224-1.661-2.515-3.3-3.864-4.941-38.823,37.346-162.579,156.393-202.3,194.614.617-.148,11.612-2.828,12.2-3.055.959-.924,192.986-185.675,193.966-186.618" transform="translate(172.857 164.95)" fill="#e5e5e5"/>
          <path id="Tracciato_915" data-name="Tracciato 915" d="M397.39,183.539c-1.353-1.54-2.755-3.089-4.173-4.646-75.348,72.493-125.25,120.5-219.206,210.9q5.709-1.105,11.408-2.309c28.071-27.016-6.317,6.068,211.97-203.94" transform="translate(160.309 159.931)" fill="#e5e5e5"/>
          <path id="Tracciato_916" data-name="Tracciato 916" d="M399.84,178q-2.086-2.287-4.161-4.65C317.318,248.734,238.587,324.47,161.116,399c3.6-.544,7.193-1.123,10.8-1.725C358.588,217.7,249.252,322.888,399.84,178" transform="translate(148.429 154.98)" fill="#e5e5e5"/>
          <path id="Tracciato_917" data-name="Tracciato 917" d="M401.878,172.481q-2.02-2.4-4-4.83C220.072,338.736,326.9,235.939,148.847,407.24c3.443-.392,6.874-.811,10.323-1.263l.013-.006c160.308-154.251,151.529-145.8,242.695-233.491" transform="translate(137.126 149.88)" fill="#e5e5e5"/>
          <path id="Tracciato_918" data-name="Tracciato 918" d="M403.783,166.749q-1.951-2.449-3.877-4.936c-106.7,102.645-134.369,129.264-262.828,252.863,3.295-.277,6.592-.555,9.9-.867L147,413.8C261.306,303.816,314.633,252.515,403.783,166.749" transform="translate(126.284 144.661)" fill="#e5e5e5"/>
          <path id="Tracciato_919" data-name="Tracciato 919" d="M405.546,160.886c-1.256-1.665-2.517-3.341-3.744-5.046C161.011,387.476,250.176,301.7,125.754,421.389q4.761-.216,9.56-.517c196.437-188.985,86.155-82.9,270.232-259.986" transform="translate(115.852 139.321)" fill="#e5e5e5"/>
          <path id="Tracciato_920" data-name="Tracciato 920" d="M407.209,154.873c-1.228-1.7-2.428-3.419-3.637-5.146L208.5,337.385l-93.682,90.128q4.6-.062,9.211-.206c86.631-83.33,90.756-87.293,283.18-272.433" transform="translate(105.778 133.856)" fill="#e5e5e5"/>
          <path id="Tracciato_921" data-name="Tracciato 921" d="M408.824,148.765c-1.174-1.754-2.352-3.521-3.518-5.294L104.24,433.109q4.455.08,8.928.08c179.171-172.347,48.673-46.822,295.656-284.424" transform="translate(96.032 128.263)" fill="#e5e5e5"/>
          <path id="Tracciato_922" data-name="Tracciato 922" d="M410.392,142.491l-.006-.013c-1.145-1.794-2.273-3.582-3.38-5.39C377.016,165.936,124,409.336,94.007,438.2q4.288.207,8.638.35L410.392,142.491" transform="translate(86.605 122.556)" fill="#e5e5e5"/>
          <path id="Tracciato_923" data-name="Tracciato 923" d="M411.909,136.083q-1.657-2.759-3.276-5.532L84.129,442.764c2.909.265,5.685.5,8.306.669C148.848,389.141,276.979,265.9,411.909,136.083" transform="translate(77.504 116.713)" fill="#e5e5e5"/>
          <path id="Tracciato_924" data-name="Tracciato 924" d="M413.365,129.522c-1.072-1.867-2.117-3.744-3.155-5.638-5.064,4.839-288.686,277.71-335.58,322.816q4.112.54,8,.975c76.969-74.035,91.231-87.787,330.731-318.153" transform="translate(68.753 110.753)" fill="#e5e5e5"/>
          <path id="Tracciato_925" data-name="Tracciato 925" d="M414.736,122.816q-1.545-2.867-3.014-5.765c-.93.894-289.989,278.987-346.208,333.083,2.6.445,5.17.869,7.693,1.271,206.1-198.3,341.53-328.588,341.53-328.588" transform="translate(60.354 104.644)" fill="#e5e5e5"/>
          <path id="Tracciato_926" data-name="Tracciato 926" d="M416.109,115.987q-1.464-2.943-2.878-5.906C402.057,120.835,68.75,441.5,56.719,453.071c2.476.549,4.951,1.057,7.4,1.544,90.224-86.808,323.094-310.81,351.988-338.629" transform="translate(52.253 98.413)" fill="#e5e5e5"/>
          <path id="Tracciato_927" data-name="Tracciato 927" d="M418.827,101.844c-.882-2.057-1.758-4.1-2.615-6.169-6.742,6.491-368.887,354.883-376.045,361.766q3.386,1.105,6.807,2.112C210.068,302.644,195.237,316.93,418.827,101.844" transform="translate(37.004 85.534)" fill="#e5e5e5"/>
          <path id="Tracciato_928" data-name="Tracciato 928" d="M420.1,94.507q-1.254-3.134-2.455-6.288C347.79,155.445,129.806,365.128,32.483,458.762c2.129.86,4.286,1.68,6.446,2.47C91.75,410.41,365.54,147.014,420.1,94.507" transform="translate(29.925 78.868)" fill="#e5e5e5"/>
          <path id="Tracciato_929" data-name="Tracciato 929" d="M421.3,87.03q-1.193-3.2-2.319-6.428L25.261,459.389c1.971.979,3.992,1.939,6.04,2.858C137.58,359.973,398.68,108.792,421.3,87.03" transform="translate(23.272 72.058)" fill="#e5e5e5"/>
          <path id="Tracciato_930" data-name="Tracciato 930" d="M422.348,79.384c-.742-2.184-1.456-4.379-2.159-6.578C228.138,257.566,183.837,300.149,18.569,459.184c1.81,1.129,3.656,2.242,5.558,3.307L422.348,79.384" transform="translate(17.107 65.089)" fill="#e5e5e5"/>
          <path id="Tracciato_931" data-name="Tracciato 931" d="M423.158,71.572c-.68-2.252-1.341-4.5-1.983-6.763-132.417,127.389-2.34,2.273-408.651,393.14,1.595,1.33,3.247,2.621,4.976,3.883C180.974,304.586,86.531,395.4,423.158,71.572" transform="translate(11.538 57.939)" fill="#e5e5e5"/>
          <path id="Tracciato_932" data-name="Tracciato 932" d="M423.613,63.548q-.937-3.452-1.812-6.93C344.73,130.744,328.71,146.18,7.29,455.392c1.324,1.58,2.745,3.106,4.24,4.591C67.091,406.531,365.942,119.016,423.613,63.548" transform="translate(6.716 50.617)" fill="#e5e5e5"/>
          <path id="Tracciato_933" data-name="Tracciato 933" d="M423.475,55.3c-.015-.038-.013-.068-.027-.106-.548-2.288-1.086-4.595-1.641-6.94C223.752,238.755,148.649,311.038,3.125,451.018a58.448,58.448,0,0,0,3.237,5.548C103.953,362.7,344.054,131.706,423.475,55.3" transform="translate(2.879 43.136)" fill="#e5e5e5"/>
          <path id="Tracciato_934" data-name="Tracciato 934" d="M422.073,46.875q-.873-3.457-1.812-6.93C326.585,130.052,92.263,355.493.49,443.79A48.594,48.594,0,0,0,2.3,450.707C67.5,387.97,356.8,109.663,422.073,46.875" transform="translate(0.451 35.711)" fill="#e5e5e5"/>
          <path id="Tracciato_935" data-name="Tracciato 935" d="M418.305,38.562q-1-3.341-2.1-6.646L1.16,431.192l0,.013A45.6,45.6,0,0,0,0,440.979C45.561,397.152,370.985,84.092,418.305,38.562" transform="translate(0 28.533)" fill="#e5e5e5"/>
          <path id="Tracciato_936" data-name="Tracciato 936" d="M363.385,30.563c-.8-2.117-1.639-4.207-2.515-6.25-28.7,27.613-245.037,235.754-270.48,260.213-.484,1.133-17.966,23.73-36.156,43.456C86.1,297.333,333.854,58.975,363.385,30.563" transform="translate(49.963 21.736)" fill="#e5e5e5"/>
          <path id="Tracciato_937" data-name="Tracciato 937" d="M51.542,209.03c-10.7,9.084-20.029,16.156-29.649,25.31A116.352,116.352,0,0,0,5.051,253.753C49.9,210.621,41.6,218.6,51.542,209.03" transform="translate(4.653 186.873)" fill="#e5e5e5"/>
          <path id="Tracciato_938" data-name="Tracciato 938" d="M329.023,23.041c-.972-1.949-2-3.862-3.08-5.71C178.792,158.91,256.665,83.973,98.128,236.5q-6.329,10.79-13.114,21.283C290.669,59.952,261.641,87.875,329.023,23.041" transform="translate(78.32 15.494)" fill="#e5e5e5"/>
          <path id="Tracciato_939" data-name="Tracciato 939" d="M309.149,16.135q-1.813-2.591-3.816-5C168.252,143.024,182.248,129.54,107.092,201.853c-2.751,5.665-5.57,11.269-8.5,16.843C231.763,90.579,203.136,118.108,309.149,16.135" transform="translate(90.826 9.951)" fill="#e5e5e5"/>
          <path id="Tracciato_940" data-name="Tracciato 940" d="M291.576,10.032a59.765,59.765,0,0,0-4.759-4.083C262.306,29.526,140.291,146.893,113.895,172.3q-2.989,7.355-6.177,14.616L291.576,10.032" transform="translate(99.236 5.318)" fill="#e5e5e5"/>
          <path id="Tracciato_941" data-name="Tracciato 941" d="M273.921,4.965a54.276,54.276,0,0,0-5.994-2.89C179.607,87.042,121.222,143.2,119.218,145.129c-1.562,4.432-3.135,8.87-4.782,13.275C226.685,50.4,190.89,84.835,273.921,4.965" transform="translate(105.425 1.855)" fill="#e5e5e5"/>
          <path id="Tracciato_942" data-name="Tracciato 942" d="M254.4,1.222A51.24,51.24,0,0,0,246.653,0C177.792,66.237,204.222,40.812,124.6,117.413l-.006.017c-1.589,4.369-3.143,8.741-4.686,13.15C125.862,124.853,248.6,6.8,254.4,1.222" transform="translate(110.464)" fill="#e5e5e5"/>
          <path id="Tracciato_943" data-name="Tracciato 943" d="M229.924.017a73.7,73.7,0,0,0-10.788,1.72c-56.748,54.587-36.786,35.386-87.027,83.717l-.008.019c-2.246,4.856-4.346,9.788-6.352,14.771.473-.456,39.067-37.585,104.174-100.227" transform="translate(115.848 0.015)" fill="#e5e5e5"/>
          <path id="Tracciato_944" data-name="Tracciato 944" d="M192.964,4.154a114.835,114.835,0,0,0-31.4,21.785,162.988,162.988,0,0,0-26.6,34.012c30.348-29.19,17.514-16.843,57.993-55.8" transform="translate(124.343 3.714)" fill="#e5e5e5"/>
        </g>
        <g id="Raggruppa_2039" data-name="Raggruppa 2039" transform="matrix(0.999, 0.035, -0.035, 0.999, -357.615, 169.856)" clip-path="url(#clip-path-3)">
          <path id="Tracciato_945" data-name="Tracciato 945" d="M492.4,110.306c-1.142-2.443-2.228-4.888-3.323-7.349C442.553,148.391,173.545,410.9,48.266,533.17c2.859.77,5.722,1.5,8.572,2.209,6.092-5.944,429.48-419.134,435.565-425.073" transform="translate(63.281 134.985)" fill="#e5e5e5"/>
          <path id="Tracciato_946" data-name="Tracciato 946" d="M261.09,304.507a380.627,380.627,0,0,0,51.57-39.778l.042-.035,9.725-9.494.178-.178c9.859-10.238,18.674-21.68,24.534-34.5-9.672,9.439-72.14,70.4-86.049,83.98" transform="translate(342.311 289.129)" fill="#e5e5e5"/>
          <path id="Tracciato_947" data-name="Tracciato 947" d="M236.781,353.191q11.225-5.224,22.078-10.975l.014,0c55.367-54.04,27.592-26.933,126.335-123.306a3.466,3.466,0,0,0,.079-.386,83.49,83.49,0,0,0,1.285-11.507c-106.7,104.124-73.462,71.683-149.791,146.178" transform="translate(310.44 271.411)" fill="#e5e5e5"/>
          <path id="Tracciato_948" data-name="Tracciato 948" d="M410.12,206.48l-.007-.016a58.546,58.546,0,0,0-1.916-8.683c-117.482,114.639-76.776,74.914-189.888,185.3q9.065-3.335,17.98-6.966l.016,0c98.628-96.261,58.87-57.461,173.814-169.634" transform="translate(286.221 259.308)" fill="#e5e5e5"/>
          <path id="Tracciato_949" data-name="Tracciato 949" d="M425.526,197.557A78.308,78.308,0,0,0,421.8,190.6c-125.952,122.917-78.473,76.575-219.544,214.277q7.994-2.406,15.921-4.983c9.6-9.362,198.977-194.17,207.344-202.333" transform="translate(265.181 249.887)" fill="#e5e5e5"/>
          <path id="Tracciato_950" data-name="Tracciato 950" d="M435.632,190.537c-1.472-2.027-3.025-4.024-4.648-6.03-46.7,45.57-195.566,190.833-243.352,237.471.742-.18,13.968-3.451,14.678-3.728,1.153-1.128,232.144-226.562,233.322-227.713" transform="translate(246.001 241.904)" fill="#e5e5e5"/>
          <path id="Tracciato_951" data-name="Tracciato 951" d="M442.714,184.562c-1.627-1.879-3.314-3.769-5.02-5.669C347.058,267.35,287.03,325.933,174.011,436.23q6.867-1.348,13.723-2.817c33.767-32.965-7.6,7.4,254.98-248.851" transform="translate(228.143 234.544)" fill="#e5e5e5"/>
          <path id="Tracciato_952" data-name="Tracciato 952" d="M448.277,179.029q-2.51-2.791-5.006-5.674c-94.26,91.979-188.966,184.392-282.156,275.338,4.336-.663,8.653-1.37,12.993-2.105,224.547-219.128,93.026-90.77,274.169-267.559" transform="translate(211.237 227.283)" fill="#e5e5e5"/>
          <path id="Tracciato_953" data-name="Tracciato 953" d="M453.219,173.544q-2.43-2.926-4.807-5.893C234.524,376.411,363.027,250.977,148.847,460c4.141-.478,8.269-.989,12.417-1.542l.016-.007c192.835-188.219,182.275-177.9,291.938-284.908" transform="translate(195.151 219.805)" fill="#e5e5e5"/>
          <path id="Tracciato_954" data-name="Tracciato 954" d="M457.9,167.836q-2.347-2.988-4.664-6.023C324.888,287.062,291.6,319.542,137.078,470.359c3.964-.337,7.929-.677,11.914-1.058l.016-.007c137.5-134.207,201.651-196.8,308.89-301.458" transform="translate(179.721 212.15)" fill="#e5e5e5"/>
          <path id="Tracciato_955" data-name="Tracciato 955" d="M462.317,162c-1.511-2.031-3.027-4.077-4.5-6.157C168.165,438.486,275.422,333.826,125.754,479.866q5.727-.264,11.5-.631C373.548,248.632,240.89,378.078,462.317,162" transform="translate(164.874 204.319)" fill="#e5e5e5"/>
          <path id="Tracciato_956" data-name="Tracciato 956" d="M466.536,156.006c-1.477-2.08-2.921-4.172-4.375-6.279-9.21,8.988-224.559,219.135-234.651,228.982L114.819,488.684q5.533-.076,11.079-.252C230.107,386.752,235.069,381.917,466.536,156.006" transform="translate(150.537 196.305)" fill="#e5e5e5"/>
          <path id="Tracciato_957" data-name="Tracciato 957" d="M470.625,149.93c-1.412-2.14-2.829-4.3-4.232-6.459L104.24,496.891q5.359.1,10.74.1c215.525-210.3,58.549-57.132,355.646-347.058" transform="translate(136.667 188.103)" fill="#e5e5e5"/>
          <path id="Tracciato_958" data-name="Tracciato 958" d="M474.587,143.681l-.007-.016c-1.377-2.189-2.734-4.37-4.065-6.577-36.076,35.2-340.434,332.2-376.508,367.421q5.158.253,10.391.428l370.19-361.255" transform="translate(123.251 179.733)" fill="#e5e5e5"/>
          <path id="Tracciato_959" data-name="Tracciato 959" d="M478.416,137.3q-1.993-3.366-3.94-6.751L84.129,511.517c3.5.323,6.839.605,9.991.816,67.86-66.247,221.989-216.63,384.3-375.031" transform="translate(110.3 171.163)" fill="#e5e5e5"/>
          <path id="Tracciato_960" data-name="Tracciato 960" d="M482.095,130.764c-1.29-2.279-2.547-4.569-3.795-6.88-6.092,5.9-347.261,338.865-403.67,393.9q4.947.659,9.628,1.19C176.845,428.64,194,411.859,482.095,130.764" transform="translate(97.846 162.422)" fill="#e5e5e5"/>
          <path id="Tracciato_961" data-name="Tracciato 961" d="M485.594,124.086q-1.858-3.5-3.626-7.035c-1.119,1.091-348.828,340.423-416.455,406.432,3.122.543,6.219,1.061,9.254,1.551C322.688,283.061,485.594,124.086,485.594,124.086" transform="translate(85.893 153.464)" fill="#e5e5e5"/>
          <path id="Tracciato_962" data-name="Tracciato 962" d="M489.03,117.287q-1.761-3.591-3.462-7.206C472.127,123.2,71.191,514.479,56.719,528.6c2.979.67,5.956,1.29,8.9,1.884,108.531-105.924,388.65-379.254,423.407-413.2" transform="translate(74.363 144.325)" fill="#e5e5e5"/>
          <path id="Tracciato_963" data-name="Tracciato 963" d="M495.659,103.2c-1.061-2.51-2.115-5-3.145-7.527C484.4,103.6,48.778,528.707,40.167,537.106q4.073,1.349,8.188,2.577C244.541,348.221,226.7,365.654,495.659,103.2" transform="translate(52.662 125.438)" fill="#e5e5e5"/>
          <path id="Tracciato_964" data-name="Tracciato 964" d="M498.749,95.892q-1.508-3.824-2.954-7.673c-84.029,82.03-346.242,337.887-463.312,452.141,2.561,1.049,5.156,2.05,7.754,3.014C103.775,481.36,433.119,159.962,498.749,95.892" transform="translate(42.588 115.663)" fill="#e5e5e5"/>
          <path id="Tracciato_965" data-name="Tracciato 965" d="M501.663,88.446q-1.435-3.907-2.789-7.844L25.261,542.8c2.371,1.195,4.8,2.367,7.266,3.487C160.369,421.494,474.448,115,501.663,88.446" transform="translate(33.119 105.676)" fill="#e5e5e5"/>
          <path id="Tracciato_966" data-name="Tracciato 966" d="M504.276,80.832c-.892-2.665-1.752-5.343-2.6-8.026C270.66,298.252,217.371,350.212,18.569,544.27c2.177,1.377,4.4,2.736,6.686,4.035L504.276,80.832" transform="translate(24.346 95.455)" fill="#e5e5e5"/>
          <path id="Tracciato_967" data-name="Tracciato 967" d="M506.477,73.062c-.818-2.748-1.613-5.487-2.385-8.253C344.807,220.25,501.277,67.582,12.524,544.523c1.918,1.622,3.906,3.2,5.986,4.738,196.643-191.873,83.037-81.057,487.967-476.2" transform="translate(16.42 84.97)" fill="#e5e5e5"/>
          <path id="Tracciato_968" data-name="Tracciato 968" d="M508.086,65.074q-1.127-4.212-2.179-8.456C413.2,147.067,393.927,165.9,7.29,543.207c1.592,1.927,3.3,3.79,5.1,5.6,66.834-65.223,426.323-416.053,495.7-483.735" transform="translate(9.558 74.231)" fill="#e5e5e5"/>
          <path id="Tracciato_969" data-name="Tracciato 969" d="M508.765,56.848c-.018-.046-.016-.083-.032-.129-.659-2.792-1.306-5.607-1.974-8.468C268.518,280.707,178.176,368.907,3.125,539.712a71.571,71.571,0,0,0,3.894,6.769c117.392-114.535,406.21-396.4,501.746-489.633" transform="translate(4.097 63.261)" fill="#e5e5e5"/>
          <path id="Tracciato_970" data-name="Tracciato 970" d="M507.614,48.4q-1.05-4.219-2.179-8.456C392.75,149.895,110.884,424.981.49,532.721a59.984,59.984,0,0,0,2.175,8.44C81.1,464.609,429.1,125.016,507.614,48.4" transform="translate(0.642 52.371)" fill="#e5e5e5"/>
          <path id="Tracciato_971" data-name="Tracciato 971" d="M503.181,40.026q-1.206-4.077-2.521-8.11C498.7,33.83,11.964,508.8,1.4,519.118l0,.016A56.4,56.4,0,0,0,0,531.059C54.805,477.581,446.259,95.582,503.181,40.026" transform="translate(0 41.845)" fill="#e5e5e5"/>
          <path id="Tracciato_972" data-name="Tracciato 972" d="M426.113,31.94c-.966-2.584-1.971-5.133-3.025-7.627C388.565,58.006,128.332,311.983,97.726,341.828c-.582,1.382-21.611,28.956-43.492,53.026C92.561,357.456,390.589,66.608,426.113,31.94" transform="translate(71.105 31.876)" fill="#e5e5e5"/>
          <path id="Tracciato_973" data-name="Tracciato 973" d="M60.975,209.03c-12.866,11.084-24.093,19.714-35.665,30.883A141.413,141.413,0,0,0,5.051,263.6c53.943-52.63,43.968-42.9,55.924-54.572" transform="translate(6.622 274.056)" fill="#e5e5e5"/>
          <path id="Tracciato_974" data-name="Tracciato 974" d="M378.533,24.3c-1.169-2.378-2.408-4.712-3.7-6.968C197.82,190.087,291.493,98.649,100.789,284.767q-7.613,13.166-15.775,25.97C332.4,69.337,297.479,103.41,378.533,24.3" transform="translate(111.461 22.722)" fill="#e5e5e5"/>
          <path id="Tracciato_975" data-name="Tracciato 975" d="M351.872,17.237q-2.181-3.162-4.59-6.106c-164.9,160.937-148.06,144.484-238.465,232.722-3.309,6.912-6.7,13.751-10.229,20.552,160.2-156.331,125.76-122.739,253.283-247.168" transform="translate(129.258 14.594)" fill="#e5e5e5"/>
          <path id="Tracciato_976" data-name="Tracciato 976" d="M328.882,10.932a72.182,72.182,0,0,0-5.725-4.983C293.672,34.717,146.9,177.931,115.148,208.936q-3.595,8.975-7.43,17.835L328.882,10.932" transform="translate(141.227 7.8)" fill="#e5e5e5"/>
          <path id="Tracciato_977" data-name="Tracciato 977" d="M306.281,5.6a64.889,64.889,0,0,0-7.211-3.527C192.83,105.753,122.6,174.283,120.188,176.631c-1.879,5.408-3.772,10.823-5.752,16.2C249.461,61.04,206.4,103.06,306.281,5.6" transform="translate(150.035 2.72)" fill="#e5e5e5"/>
          <path id="Tracciato_978" data-name="Tracciato 978" d="M281.689,1.491A60.829,60.829,0,0,0,272.371,0C189.537,80.823,221.33,49.8,125.55,143.269l-.007.021c-1.911,5.332-3.781,10.666-5.637,16.046C127.07,152.347,274.709,8.3,281.689,1.491" transform="translate(157.207)" fill="#e5e5e5"/>
          <path id="Tracciato_979" data-name="Tracciato 979" d="M251.062.017a87.5,87.5,0,0,0-12.977,2.1C169.822,68.723,193.835,45.293,133.4,104.268l-.009.023c-2.7,5.926-5.228,11.944-7.64,18.024.569-.557,46.994-45.861,125.312-122.3" transform="translate(164.869 0.022)" fill="#e5e5e5"/>
          <path id="Tracciato_980" data-name="Tracciato 980" d="M204.731,4.154a138.114,138.114,0,0,0-37.768,26.582,198.509,198.509,0,0,0-31.992,41.5c36.506-35.618,21.068-20.552,69.76-68.085" transform="translate(176.958 5.446)" fill="#e5e5e5"/>
        </g>
        <g id="Raggruppa_2038" data-name="Raggruppa 2038" transform="translate(1228 468.689)" style="isolation: isolate">
          <g id="Raggruppa_1948" data-name="Raggruppa 1948">
            <g id="Raggruppa_1947" data-name="Raggruppa 1947" clip-path="url(#clip-path-4)">
              <rect id="Rettangolo_353" data-name="Rettangolo 353" width="95.663" height="96.047" transform="translate(-28.025 57.698) rotate(-64.094)" fill="#fafafa"/>
            </g>
          </g>
        </g>
      </g>
    </g>
  </g>
</svg>
