<svg xmlns="http://www.w3.org/2000/svg" xmlns:xlink="http://www.w3.org/1999/xlink" width="1920" height="599" viewBox="0 0 1920 599">
  <defs>
    <clipPath id="clip-path">
      <rect id="Rettangolo_502" data-name="Rettangolo 502" width="1920" height="599" fill="#fff"/>
    </clipPath>
    <clipPath id="clip-path-2">
      <rect id="Rettangolo_376" data-name="Rettangolo 376" width="579.441" height="561.452" fill="#e5e5e5"/>
    </clipPath>
    <clipPath id="clip-path-3">
      <rect id="Rettangolo_378" data-name="Rettangolo 378" width="595.349" height="585.168" fill="#e5e5e5"/>
    </clipPath>
    <clipPath id="clip-path-4">
      <path id="Tracciato_850" data-name="Tracciato 850" d="M13.17,53.927v0A28.987,28.987,0,0,1,58.183,17.387,28.989,28.989,0,0,1,13.17,53.927M35.279,0a36.161,36.161,0,0,0-3.708.23A35.646,35.646,0,0,0,.194,31.97,36.025,36.025,0,0,0,0,35.608v.215A35.658,35.658,0,0,0,35.59,71.311h.275A35.656,35.656,0,0,0,36,0Z" fill="#fafafa"/>
    </clipPath>
    <clipPath id="clip-Web_1920_3">
      <rect width="1920" height="599"/>
    </clipPath>
  </defs>
  <g id="Web_1920_3" data-name="Web 1920 – 3" clip-path="url(#clip-Web_1920_3)">
    <rect width="1920" height="599" fill="#fff"/>
    <g id="Gruppo_di_maschere_683" data-name="Gruppo di maschere 683" clip-path="url(#clip-path)">
      <rect id="Rettangolo_498" data-name="Rettangolo 498" width="1920" height="599" fill="#fff"/>
      <g id="Raggruppa_2415" data-name="Raggruppa 2415" opacity="0.574">
        <g id="Raggruppa_2416" data-name="Raggruppa 2416" transform="translate(-116.846 384.493) rotate(-120)" opacity="0.717">
          <path id="Tracciato_849" data-name="Tracciato 849" d="M372.836,253.96c-22.113,21.336-48.758,34-79.965,44.457-31.712,10.632-57.2,27.118-85.121,45.116-53.418,34.427-119.718,60.343-168.489,16.056C-1.383,322.681-15.513,243.007,21.239,188.623c12.712-18.808,29.946-30.468,48.85-38.211,14.636-5.994,28.543-7.858,37.261-22.08,18.174-29.648,12.186-69.031,30.466-99.906,15.957-26.949,39.7-36.7,68.479-20.673,39.657,22.083,60.9,69.654,101.423,90.022,36.425,18.31,95.316,34.944,101.433,82.905,2.183,17.123-5.624,33.985-15.332,48.257a158.038,158.038,0,0,1-20.982,25.022" transform="translate(0 0)" fill="#efefef"/>
        </g>
        <g id="Raggruppa_2032" data-name="Raggruppa 2032" transform="matrix(0.999, 0.035, -0.035, 0.999, 1539.594, 4.103)" opacity="0.424" clip-path="url(#clip-path-2)">
          <path id="Tracciato_909" data-name="Tracciato 909" d="M417.487,108.98c-.949-2-1.852-4.006-2.763-6.023C376.046,140.191,152.413,355.323,48.266,455.529c2.377.631,4.757,1.233,7.126,1.811l362.1-348.36" transform="translate(44.465 92.044)" fill="#e5e5e5"/>
          <path id="Tracciato_910" data-name="Tracciato 910" d="M261.09,289.351a315.926,315.926,0,0,0,42.871-32.6l.035-.028,8.085-7.781.148-.146c8.2-8.39,15.524-17.768,20.4-28.27-8.04,7.735-59.972,57.7-71.534,68.824" transform="translate(240.531 197.152)" fill="#e5e5e5"/>
          <path id="Tracciato_911" data-name="Tracciato 911" d="M236.781,326.811q9.332-4.281,18.354-8.995l.012,0c46.027-44.287,22.938-22.073,105.025-101.053a2.8,2.8,0,0,0,.065-.316,67.489,67.489,0,0,0,1.068-9.43c-88.7,85.332-61.071,58.746-124.524,119.8" transform="translate(218.136 185.07)" fill="#e5e5e5"/>
          <path id="Tracciato_912" data-name="Tracciato 912" d="M377.766,204.91l-.006-.013a47.4,47.4,0,0,0-1.593-7.116c-97.665,93.95-63.826,61.394-157.858,151.861q7.536-2.733,14.947-5.709l.013,0c81.992-78.889,48.94-47.091,144.5-139.02" transform="translate(201.118 176.817)" fill="#e5e5e5"/>
          <path id="Tracciato_913" data-name="Tracciato 913" d="M387.866,196.3a63.876,63.876,0,0,0-3.093-5.7C280.066,291.33,319.536,253.352,202.261,366.2q6.646-1.972,13.236-4.083c7.977-7.673,165.414-159.128,172.369-165.818" transform="translate(186.334 170.393)" fill="#e5e5e5"/>
          <path id="Tracciato_914" data-name="Tracciato 914" d="M393.8,189.448c-1.224-1.661-2.515-3.3-3.864-4.941-38.823,37.346-162.579,156.393-202.3,194.614.617-.148,11.612-2.828,12.2-3.055.959-.924,192.986-185.675,193.966-186.618" transform="translate(172.857 164.95)" fill="#e5e5e5"/>
          <path id="Tracciato_915" data-name="Tracciato 915" d="M397.39,183.539c-1.353-1.54-2.755-3.089-4.173-4.646-75.348,72.493-125.25,120.5-219.206,210.9q5.709-1.105,11.408-2.309c28.071-27.016-6.317,6.068,211.97-203.94" transform="translate(160.309 159.931)" fill="#e5e5e5"/>
          <path id="Tracciato_916" data-name="Tracciato 916" d="M399.84,178q-2.086-2.287-4.161-4.65C317.318,248.734,238.587,324.47,161.116,399c3.6-.544,7.193-1.123,10.8-1.725C358.588,217.7,249.252,322.888,399.84,178" transform="translate(148.429 154.98)" fill="#e5e5e5"/>
          <path id="Tracciato_917" data-name="Tracciato 917" d="M401.878,172.481q-2.02-2.4-4-4.83C220.072,338.736,326.9,235.939,148.847,407.24c3.443-.392,6.874-.811,10.323-1.263l.013-.006c160.308-154.251,151.529-145.8,242.695-233.491" transform="translate(137.126 149.88)" fill="#e5e5e5"/>
          <path id="Tracciato_918" data-name="Tracciato 918" d="M403.783,166.749q-1.951-2.449-3.877-4.936c-106.7,102.645-134.369,129.264-262.828,252.863,3.295-.277,6.592-.555,9.9-.867L147,413.8C261.306,303.816,314.633,252.515,403.783,166.749" transform="translate(126.284 144.661)" fill="#e5e5e5"/>
          <path id="Tracciato_919" data-name="Tracciato 919" d="M405.546,160.886c-1.256-1.665-2.517-3.341-3.744-5.046C161.011,387.476,250.176,301.7,125.754,421.389q4.761-.216,9.56-.517c196.437-188.985,86.155-82.9,270.232-259.986" transform="translate(115.852 139.321)" fill="#e5e5e5"/>
          <path id="Tracciato_920" data-name="Tracciato 920" d="M407.209,154.873c-1.228-1.7-2.428-3.419-3.637-5.146L208.5,337.385l-93.682,90.128q4.6-.062,9.211-.206c86.631-83.33,90.756-87.293,283.18-272.433" transform="translate(105.778 133.856)" fill="#e5e5e5"/>
          <path id="Tracciato_921" data-name="Tracciato 921" d="M408.824,148.765c-1.174-1.754-2.352-3.521-3.518-5.294L104.24,433.109q4.455.08,8.928.08c179.171-172.347,48.673-46.822,295.656-284.424" transform="translate(96.032 128.263)" fill="#e5e5e5"/>
          <path id="Tracciato_922" data-name="Tracciato 922" d="M410.392,142.491l-.006-.013c-1.145-1.794-2.273-3.582-3.38-5.39C377.016,165.936,124,409.336,94.007,438.2q4.288.207,8.638.35L410.392,142.491" transform="translate(86.605 122.556)" fill="#e5e5e5"/>
          <path id="Tracciato_923" data-name="Tracciato 923" d="M411.909,136.083q-1.657-2.759-3.276-5.532L84.129,442.764c2.909.265,5.685.5,8.306.669C148.848,389.141,276.979,265.9,411.909,136.083" transform="translate(77.504 116.713)" fill="#e5e5e5"/>
          <path id="Tracciato_924" data-name="Tracciato 924" d="M413.365,129.522c-1.072-1.867-2.117-3.744-3.155-5.638-5.064,4.839-288.686,277.71-335.58,322.816q4.112.54,8,.975c76.969-74.035,91.231-87.787,330.731-318.153" transform="translate(68.753 110.753)" fill="#e5e5e5"/>
          <path id="Tracciato_925" data-name="Tracciato 925" d="M414.736,122.816q-1.545-2.867-3.014-5.765c-.93.894-289.989,278.987-346.208,333.083,2.6.445,5.17.869,7.693,1.271,206.1-198.3,341.53-328.588,341.53-328.588" transform="translate(60.354 104.644)" fill="#e5e5e5"/>
          <path id="Tracciato_926" data-name="Tracciato 926" d="M416.109,115.987q-1.464-2.943-2.878-5.906C402.057,120.835,68.75,441.5,56.719,453.071c2.476.549,4.951,1.057,7.4,1.544,90.224-86.808,323.094-310.81,351.988-338.629" transform="translate(52.253 98.413)" fill="#e5e5e5"/>
          <path id="Tracciato_927" data-name="Tracciato 927" d="M418.827,101.844c-.882-2.057-1.758-4.1-2.615-6.169-6.742,6.491-368.887,354.883-376.045,361.766q3.386,1.105,6.807,2.112C210.068,302.644,195.237,316.93,418.827,101.844" transform="translate(37.004 85.534)" fill="#e5e5e5"/>
          <path id="Tracciato_928" data-name="Tracciato 928" d="M420.1,94.507q-1.254-3.134-2.455-6.288C347.79,155.445,129.806,365.128,32.483,458.762c2.129.86,4.286,1.68,6.446,2.47C91.75,410.41,365.54,147.014,420.1,94.507" transform="translate(29.925 78.868)" fill="#e5e5e5"/>
          <path id="Tracciato_929" data-name="Tracciato 929" d="M421.3,87.03q-1.193-3.2-2.319-6.428L25.261,459.389c1.971.979,3.992,1.939,6.04,2.858C137.58,359.973,398.68,108.792,421.3,87.03" transform="translate(23.272 72.058)" fill="#e5e5e5"/>
          <path id="Tracciato_930" data-name="Tracciato 930" d="M422.348,79.384c-.742-2.184-1.456-4.379-2.159-6.578C228.138,257.566,183.837,300.149,18.569,459.184c1.81,1.129,3.656,2.242,5.558,3.307L422.348,79.384" transform="translate(17.107 65.089)" fill="#e5e5e5"/>
          <path id="Tracciato_931" data-name="Tracciato 931" d="M423.158,71.572c-.68-2.252-1.341-4.5-1.983-6.763-132.417,127.389-2.34,2.273-408.651,393.14,1.595,1.33,3.247,2.621,4.976,3.883C180.974,304.586,86.531,395.4,423.158,71.572" transform="translate(11.538 57.939)" fill="#e5e5e5"/>
          <path id="Tracciato_932" data-name="Tracciato 932" d="M423.613,63.548q-.937-3.452-1.812-6.93C344.73,130.744,328.71,146.18,7.29,455.392c1.324,1.58,2.745,3.106,4.24,4.591C67.091,406.531,365.942,119.016,423.613,63.548" transform="translate(6.716 50.617)" fill="#e5e5e5"/>
          <path id="Tracciato_933" data-name="Tracciato 933" d="M423.475,55.3c-.015-.038-.013-.068-.027-.106-.548-2.288-1.086-4.595-1.641-6.94C223.752,238.755,148.649,311.038,3.125,451.018a58.448,58.448,0,0,0,3.237,5.548C103.953,362.7,344.054,131.706,423.475,55.3" transform="translate(2.879 43.136)" fill="#e5e5e5"/>
          <path id="Tracciato_934" data-name="Tracciato 934" d="M422.073,46.875q-.873-3.457-1.812-6.93C326.585,130.052,92.263,355.493.49,443.79A48.594,48.594,0,0,0,2.3,450.707C67.5,387.97,356.8,109.663,422.073,46.875" transform="translate(0.451 35.711)" fill="#e5e5e5"/>
          <path id="Tracciato_935" data-name="Tracciato 935" d="M418.305,38.562q-1-3.341-2.1-6.646L1.16,431.192l0,.013A45.6,45.6,0,0,0,0,440.979C45.561,397.152,370.985,84.092,418.305,38.562" transform="translate(0 28.533)" fill="#e5e5e5"/>
          <path id="Tracciato_936" data-name="Tracciato 936" d="M363.385,30.563c-.8-2.117-1.639-4.207-2.515-6.25-28.7,27.613-245.037,235.754-270.48,260.213-.484,1.133-17.966,23.73-36.156,43.456C86.1,297.333,333.854,58.975,363.385,30.563" transform="translate(49.963 21.736)" fill="#e5e5e5"/>
          <path id="Tracciato_937" data-name="Tracciato 937" d="M51.542,209.03c-10.7,9.084-20.029,16.156-29.649,25.31A116.352,116.352,0,0,0,5.051,253.753C49.9,210.621,41.6,218.6,51.542,209.03" transform="translate(4.653 186.873)" fill="#e5e5e5"/>
          <path id="Tracciato_938" data-name="Tracciato 938" d="M329.023,23.041c-.972-1.949-2-3.862-3.08-5.71C178.792,158.91,256.665,83.973,98.128,236.5q-6.329,10.79-13.114,21.283C290.669,59.952,261.641,87.875,329.023,23.041" transform="translate(78.32 15.494)" fill="#e5e5e5"/>
          <path id="Tracciato_939" data-name="Tracciato 939" d="M309.149,16.135q-1.813-2.591-3.816-5C168.252,143.024,182.248,129.54,107.092,201.853c-2.751,5.665-5.57,11.269-8.5,16.843C231.763,90.579,203.136,118.108,309.149,16.135" transform="translate(90.826 9.951)" fill="#e5e5e5"/>
          <path id="Tracciato_940" data-name="Tracciato 940" d="M291.576,10.032a59.765,59.765,0,0,0-4.759-4.083C262.306,29.526,140.291,146.893,113.895,172.3q-2.989,7.355-6.177,14.616L291.576,10.032" transform="translate(99.236 5.318)" fill="#e5e5e5"/>
          <path id="Tracciato_941" data-name="Tracciato 941" d="M273.921,4.965a54.276,54.276,0,0,0-5.994-2.89C179.607,87.042,121.222,143.2,119.218,145.129c-1.562,4.432-3.135,8.87-4.782,13.275C226.685,50.4,190.89,84.835,273.921,4.965" transform="translate(105.425 1.855)" fill="#e5e5e5"/>
          <path id="Tracciato_942" data-name="Tracciato 942" d="M254.4,1.222A51.24,51.24,0,0,0,246.653,0C177.792,66.237,204.222,40.812,124.6,117.413l-.006.017c-1.589,4.369-3.143,8.741-4.686,13.15C125.862,124.853,248.6,6.8,254.4,1.222" transform="translate(110.464)" fill="#e5e5e5"/>
          <path id="Tracciato_943" data-name="Tracciato 943" d="M229.924.017a73.7,73.7,0,0,0-10.788,1.72c-56.748,54.587-36.786,35.386-87.027,83.717l-.008.019c-2.246,4.856-4.346,9.788-6.352,14.771.473-.456,39.067-37.585,104.174-100.227" transform="translate(115.848 0.015)" fill="#e5e5e5"/>
          <path id="Tracciato_944" data-name="Tracciato 944" d="M192.964,4.154a114.835,114.835,0,0,0-31.4,21.785,162.988,162.988,0,0,0-26.6,34.012c30.348-29.19,17.514-16.843,57.993-55.8" transform="translate(124.343 3.714)" fill="#e5e5e5"/>
        </g>
        <g id="Raggruppa_2039" data-name="Raggruppa 2039" transform="matrix(0.999, 0.035, -0.035, 0.999, -380.102, 29.527)" clip-path="url(#clip-path-3)">
          <path id="Tracciato_945" data-name="Tracciato 945" d="M379.358,6.277c-.975-2.087-1.9-4.175-2.839-6.277C336.779,38.807,107.007,263.026,0,367.465c2.442.657,4.888,1.285,7.322,1.887,5.2-5.077,366.839-358,372.036-363.075" transform="translate(95.277 203.238)" fill="#e5e5e5"/>
          <path id="Tracciato_946" data-name="Tracciato 946" d="M0,71.731A325.113,325.113,0,0,0,44.048,37.755l.036-.03,8.307-8.109.152-.152C60.963,20.719,68.492,10.946,73.5,0,65.237,8.062,11.88,60.136,0,71.731" transform="translate(515.392 435.321)" fill="#e5e5e5"/>
          <path id="Tracciato_947" data-name="Tracciato 947" d="M0,124.858q9.588-4.462,18.858-9.374l.012,0C66.161,69.321,42.437,92.474,126.778,10.158a2.958,2.958,0,0,0,.067-.33A71.311,71.311,0,0,0,127.943,0C36.8,88.937,65.2,61.228,0,124.858" transform="translate(467.406 408.644)" fill="#e5e5e5"/>
          <path id="Tracciato_948" data-name="Tracciato 948" d="M163.834,7.43l-.006-.014A50.008,50.008,0,0,0,162.192,0C61.846,97.918,96.614,63.987,0,158.276q7.743-2.849,15.358-5.95l.014,0C99.614,70.1,65.655,103.242,163.834,7.43" transform="translate(430.943 390.42)" fill="#e5e5e5"/>
          <path id="Tracciato_949" data-name="Tracciato 949" d="M190.7,5.946A66.89,66.89,0,0,0,187.522,0C79.941,104.989,120.5,65.407,0,183.024q6.828-2.055,13.6-4.256c8.2-8,169.956-165.85,177.1-172.822" transform="translate(399.264 376.237)" fill="#e5e5e5"/>
          <path id="Tracciato_950" data-name="Tracciato 950" d="M211.828,5.15c-1.258-1.731-2.584-3.437-3.97-5.15C167.97,38.923,40.816,163,0,202.835c.634-.154,11.931-2.947,12.537-3.184.985-.963,198.285-193.518,199.291-194.5" transform="translate(370.386 364.218)" fill="#e5e5e5"/>
          <path id="Tracciato_951" data-name="Tracciato 951" d="M229.511,4.842c-1.39-1.6-2.831-3.22-4.288-4.842C147.807,75.555,96.535,125.594,0,219.8q5.866-1.152,11.722-2.406c28.842-28.157-6.491,6.325,217.79-212.555" transform="translate(343.498 353.135)" fill="#e5e5e5"/>
          <path id="Tracciato_952" data-name="Tracciato 952" d="M245.278,4.846Q243.134,2.463,241,0C160.49,78.563,79.6,157.5,0,235.179c3.7-.567,7.391-1.171,11.1-1.8C202.894,46.213,90.555,155.85,245.278,4.846" transform="translate(318.043 342.203)" fill="#e5e5e5"/>
          <path id="Tracciato_953" data-name="Tracciato 953" d="M259.978,5.034Q257.9,2.535,255.872,0C73.18,178.312,182.941,71.173,0,249.71c3.537-.409,7.063-.845,10.606-1.317l.014-.006C175.329,87.62,166.31,96.43,259.978,5.034" transform="translate(293.824 330.944)" fill="#e5e5e5"/>
          <path id="Tracciato_954" data-name="Tracciato 954" d="M274.027,5.144q-2-2.552-3.984-5.144C160.417,106.981,131.986,134.724,0,263.543c3.385-.288,6.773-.578,10.176-.9l.014-.006C127.639,148,182.429,94.533,274.027,5.144" transform="translate(270.592 319.419)" fill="#e5e5e5"/>
          <path id="Tracciato_955" data-name="Tracciato 955" d="M287.474,5.259c-1.291-1.735-2.586-3.482-3.847-5.259C36.225,241.421,127.838,152.026,0,276.765q4.892-.225,9.823-.539c201.83-196.968,88.52-86.4,277.651-270.968" transform="translate(248.239 307.629)" fill="#e5e5e5"/>
          <path id="Tracciato_956" data-name="Tracciato 956" d="M300.418,5.363c-1.261-1.777-2.5-3.563-3.737-5.363L96.254,195.584,0,289.519q4.726-.065,9.463-.215c89.01-86.85,93.248-90.98,290.954-283.941" transform="translate(226.653 295.562)" fill="#e5e5e5"/>
          <path id="Tracciato_957" data-name="Tracciato 957" d="M312.947,5.517C311.74,3.689,310.53,1.848,309.332,0L0,301.873q4.578.083,9.173.083c184.09-179.626,50.009-48.8,303.773-296.438" transform="translate(205.77 283.212)" fill="#e5e5e5"/>
          <path id="Tracciato_958" data-name="Tracciato 958" d="M325.071,5.632l-.006-.014C323.888,3.749,322.73,1.885,321.593,0,290.779,30.068,30.812,283.749,0,313.831q4.406.216,8.875.365L325.071,5.632" transform="translate(185.57 270.61)" fill="#e5e5e5"/>
          <path id="Tracciato_959" data-name="Tracciato 959" d="M336.779,5.766q-1.7-2.875-3.366-5.766L0,325.4c2.989.276,5.841.517,8.534.7C66.5,269.513,198.144,141.064,336.779,5.766" transform="translate(166.071 257.708)" fill="#e5e5e5"/>
          <path id="Tracciato_960" data-name="Tracciato 960" d="M348.034,5.877c-1.1-1.946-2.175-3.9-3.241-5.877C339.59,5.044,48.181,289.44,0,336.451q4.225.563,8.224,1.017c79.083-77.162,93.736-91.5,339.811-331.591" transform="translate(147.32 244.548)" fill="#e5e5e5"/>
          <path id="Tracciato_961" data-name="Tracciato 961" d="M358.811,6.009q-1.587-2.988-3.1-6.009C354.758.932,57.763,290.771,0,347.152c2.667.464,5.312.906,7.9,1.325C219.665,141.8,358.811,6.009,358.811,6.009" transform="translate(129.323 231.059)" fill="#e5e5e5"/>
          <path id="Tracciato_962" data-name="Tracciato 962" d="M369.257,6.155Q367.753,3.087,366.3,0C354.819,11.208,12.361,345.415,0,357.478c2.544.572,5.087,1.1,7.606,1.609C100.307,268.613,339.57,35.149,369.257,6.155" transform="translate(111.963 217.3)" fill="#e5e5e5"/>
          <path id="Tracciato_963" data-name="Tracciato 963" d="M389.056,6.429C388.15,4.286,387.25,2.156,386.37,0,379.443,6.765,7.355,369.873,0,377.047q3.479,1.152,6.994,2.2C174.565,215.711,159.328,230.6,389.056,6.429" transform="translate(79.29 188.863)" fill="#e5e5e5"/>
          <path id="Tracciato_964" data-name="Tracciato 964" d="M398.259,6.554Q396.971,3.288,395.736,0C323.964,70.065,100,288.605,0,386.194c2.187.9,4.4,1.751,6.623,2.574C60.894,335.8,342.2,61.279,398.259,6.554" transform="translate(64.122 174.145)" fill="#e5e5e5"/>
          <path id="Tracciato_965" data-name="Tracciato 965" d="M406.917,6.7q-1.226-3.337-2.383-6.7L0,394.787c2.025,1.021,4.1,2.021,6.206,2.979C115.4,291.172,383.671,29.381,406.917,6.7" transform="translate(49.865 159.109)" fill="#e5e5e5"/>
          <path id="Tracciato_966" data-name="Tracciato 966" d="M414.864,6.856c-.762-2.276-1.5-4.564-2.219-6.856C215.322,192.564,169.806,236.946,0,402.7c1.86,1.176,3.757,2.337,5.711,3.447L414.864,6.856" transform="translate(36.655 143.719)" fill="#e5e5e5"/>
          <path id="Tracciato_967" data-name="Tracciato 967" d="M421.908,7.049C421.209,4.7,420.53,2.363,419.87,0,283.818,132.77,417.466,2.369,0,409.746c1.638,1.386,3.336,2.732,5.113,4.047C173.075,249.9,76.039,344.558,421.908,7.049" transform="translate(24.722 127.933)" fill="#e5e5e5"/>
          <path id="Tracciato_968" data-name="Tracciato 968" d="M427.753,7.223q-.962-3.6-1.862-7.223C346.7,77.257,330.245,93.345,0,415.619c1.36,1.646,2.821,3.237,4.357,4.785C61.443,364.693,368.5,65.034,427.753,7.223" transform="translate(14.39 111.764)" fill="#e5e5e5"/>
          <path id="Tracciato_969" data-name="Tracciato 969" d="M431.89,7.343c-.016-.039-.014-.071-.028-.111C431.3,4.848,430.747,2.444,430.177,0,226.685,198.551,149.519,273.887,0,419.78a61.132,61.132,0,0,0,3.326,5.782C103.6,327.732,350.289,86.981,431.89,7.343" transform="translate(6.169 95.248)" fill="#e5e5e5"/>
          <path id="Tracciato_970" data-name="Tracciato 970" d="M433.157,7.223q-.9-3.6-1.861-7.223C335.048,93.913,94.292,328.877,0,420.9a51.234,51.234,0,0,0,1.858,7.209C68.849,362.725,366.093,72.663,433.157,7.223" transform="translate(0.967 78.852)" fill="#e5e5e5"/>
          <path id="Tracciato_971" data-name="Tracciato 971" d="M429.79,6.927Q428.759,3.445,427.636,0L1.192,416.142l0,.014A48.172,48.172,0,0,0,0,426.341C46.812,380.663,381.17,54.38,429.79,6.927" transform="translate(0 63.002)" fill="#e5e5e5"/>
          <path id="Tracciato_972" data-name="Tracciato 972" d="M317.639,6.514c-.825-2.207-1.684-4.384-2.584-6.514C285.567,28.779,63.29,245.712,37.149,271.2,36.651,272.385,18.69,295.937,0,316.5,32.737,284.553,287.3,36.126,317.639,6.514" transform="translate(107.058 47.994)" fill="#e5e5e5"/>
          <path id="Tracciato_973" data-name="Tracciato 973" d="M47.767,0C36.778,9.467,27.188,16.838,17.3,26.379A120.787,120.787,0,0,0,0,46.612C46.075,1.658,37.555,9.973,47.767,0" transform="translate(9.971 412.626)" fill="#e5e5e5"/>
          <path id="Tracciato_974" data-name="Tracciato 974" d="M250.708,5.952c-1-2.031-2.057-4.025-3.164-5.952C96.353,147.559,176.363,69.457,13.475,228.43Q6.972,239.676,0,250.612C211.3,44.421,181.476,73.524,250.708,5.952" transform="translate(167.818 34.211)" fill="#e5e5e5"/>
          <path id="Tracciato_975" data-name="Tracciato 975" d="M216.341,5.215q-1.862-2.7-3.92-5.215C71.575,137.464,85.956,123.411,8.737,198.778,5.91,204.682,3.014,210.524,0,216.333,136.83,82.8,107.417,111.5,216.341,5.215" transform="translate(194.615 21.973)" fill="#e5e5e5"/>
          <path id="Tracciato_976" data-name="Tracciato 976" d="M188.906,4.256A61.652,61.652,0,0,0,184.017,0C158.832,24.572,33.467,146.9,6.346,173.381Q3.276,181.047,0,188.614L188.906,4.256" transform="translate(212.636 11.743)" fill="#e5e5e5"/>
          <path id="Tracciato_977" data-name="Tracciato 977" d="M163.864,3.012A55.425,55.425,0,0,0,157.705,0C66.96,88.556,6.972,147.091,4.913,149.1c-1.6,4.619-3.222,9.244-4.913,13.836C115.331,50.365,78.553,86.256,163.864,3.012" transform="translate(225.897 4.096)" fill="#e5e5e5"/>
          <path id="Tracciato_978" data-name="Tracciato 978" d="M138.186,1.273A51.957,51.957,0,0,0,130.227,0C59.475,69.035,86.631,42.536,4.821,122.372l-.006.018C3.182,126.944,1.585,131.5,0,136.1,6.119,130.126,132.225,7.091,138.186,1.273" transform="translate(236.695 0)" fill="#e5e5e5"/>
          <path id="Tracciato_979" data-name="Tracciato 979" d="M107.034,0A74.736,74.736,0,0,0,95.95,1.792c-58.306,56.893-37.8,36.88-89.416,87.253l-.008.02C4.218,94.126,2.061,99.267,0,104.46.486,103.985,40.139,65.288,107.034,0" transform="translate(248.231 0.034)" fill="#e5e5e5"/>
          <path id="Tracciato_980" data-name="Tracciato 980" d="M59.585,0A117.969,117.969,0,0,0,27.326,22.7,169.555,169.555,0,0,0,0,58.154C31.181,27.731,18,40.6,59.585,0" transform="translate(266.433 8.2)" fill="#e5e5e5"/>
        </g>
        <g id="Raggruppa_2038" data-name="Raggruppa 2038" transform="translate(1228 468.689)" style="isolation: isolate">
          <g id="Raggruppa_1948" data-name="Raggruppa 1948">
            <g id="Raggruppa_1947" data-name="Raggruppa 1947" clip-path="url(#clip-path-4)">
              <rect id="Rettangolo_353" data-name="Rettangolo 353" width="95.663" height="96.047" transform="translate(-28.025 57.698) rotate(-64.094)" fill="#fafafa"/>
            </g>
          </g>
        </g>
      </g>
    </g>
  </g>
</svg>
