<svg xmlns="http://www.w3.org/2000/svg" xmlns:xlink="http://www.w3.org/1999/xlink" width="1920" height="732" viewBox="0 0 1920 732">
  <defs>
    <clipPath id="clip-path">
      <rect id="Rettangolo_509" data-name="Rettangolo 509" width="1920" height="741" fill="#fff"/>
    </clipPath>
    <clipPath id="clip-path-2">
      <path id="Tracciato_1566" data-name="Tracciato 1566" d="M107.427,4.817C84.885,7.43,65.257,17.89,47.743,30.3,30.84,42.283,15.016,56.877,8.094,77.1c-11.163,32.615.159,94.316,29.733,131.747C52.266,227.118,71.055,239.608,93.7,240.1c20.246.441,37.324-10.617,48.909-25.3,5.422-6.872,9.951-14.827,10.939-24.127.886-8.344-1.122-17.219-1.859-25.873-1.463-17.142,2.187-33.75,10.353-47.122,6.5-10.648,15.692-19.145,22.651-29.451s11.676-23.414,7.954-37.065c-2.675-9.809-9.477-18.8-17.469-25.821C160.964,12.848,143.137,6.2,125.719,4.616a89.094,89.094,0,0,0-18.292.2" fill="#fafafa"/>
    </clipPath>
    <clipPath id="clip-path-3">
      <path id="Tracciato_1568" data-name="Tracciato 1568" d="M107.427,4.817C84.885,7.43,65.257,17.89,47.743,30.3,30.84,42.283,15.016,56.877,8.094,77.1c-11.163,32.615.159,94.316,29.733,131.747C52.266,227.118,71.055,239.608,93.7,240.1c20.246.441,37.324-10.617,48.909-25.3,5.422-6.872,9.951-14.827,10.939-24.127.886-8.344-1.122-17.219-1.859-25.873-1.463-17.142,2.187-33.75,10.353-47.122,6.5-10.648,15.692-19.145,22.651-29.451s11.676-23.414,7.954-37.065c-2.675-9.809-9.477-18.8-17.469-25.821C160.964,12.848,143.137,6.2,125.719,4.616a89.094,89.094,0,0,0-18.292.2" fill="#f2f2f2"/>
    </clipPath>
    <clipPath id="clip-path-5">
      <path id="Tracciato_1574" data-name="Tracciato 1574" d="M.5,2.019A3.036,3.036,0,0,0,.811,5.764L28.449,33.022a1.931,1.931,0,0,0,2.347.354,2.325,2.325,0,0,0,.774-.723,3.032,3.032,0,0,0-.3-3.743L3.625,1.654a1.99,1.99,0,0,0-1.407-.6A2.086,2.086,0,0,0,.5,2.019" transform="translate(0 -1.049)" fill="#f2f2f2"/>
    </clipPath>
    <clipPath id="clip-path-6">
      <path id="Tracciato_1576" data-name="Tracciato 1576" d="M25.918,0a2.1,2.1,0,0,0-1.641.973L1.554,34.124a3.034,3.034,0,0,0,.3,3.743,1.925,1.925,0,0,0,2.347.357,2.3,2.3,0,0,0,.776-.72L27.7,4.35A3.032,3.032,0,0,0,27.4.607,2.016,2.016,0,0,0,26.061,0Z" transform="translate(-1.048)" fill="#f2f2f2"/>
    </clipPath>
    <clipPath id="clip-path-7">
      <path id="Tracciato_1578" data-name="Tracciato 1578" d="M13.021,52.936v0a28.308,28.308,0,0,1,4.187-40.022,28.829,28.829,0,0,1,40.316,4.157A28.322,28.322,0,0,1,53.334,57.1a28.837,28.837,0,0,1-40.313-4.16M34.88,0a36,36,0,0,0-3.666.225A35.223,35.223,0,0,0,13.042,7.814,34.736,34.736,0,0,0,.192,31.382,35.113,35.113,0,0,0,0,34.953v.211a34.608,34.608,0,0,0,7.891,21.9A35.3,35.3,0,0,0,35.187,70h.272a35.254,35.254,0,0,0,22.033-7.814A34.84,34.84,0,0,0,62.65,12.935,35.3,35.3,0,0,0,35.588,0Z" fill="#fafafa"/>
    </clipPath>
    <clipPath id="clip-path-8">
      <path id="Tracciato_1580" data-name="Tracciato 1580" d="M7.5,36.807v0a22.445,22.445,0,0,1-3.6-14.514A20.988,20.988,0,0,1,9.906,8.977C16.97,2.1,27.382,3.394,33.115,11.867a22.472,22.472,0,0,1,3.6,14.514A21.007,21.007,0,0,1,30.7,39.7a15.13,15.13,0,0,1-8.5,4.286,13.715,13.715,0,0,1-1.884.128c-4.8,0-9.57-2.5-12.825-7.306M20.08,0a17.211,17.211,0,0,0-2.111.157A18.616,18.616,0,0,0,7.508,5.433,25.851,25.851,0,0,0,.111,21.82Q0,23.068,0,24.3v.147A27.289,27.289,0,0,0,4.543,39.68c3.992,5.9,9.826,8.97,15.713,8.991h.157A18.254,18.254,0,0,0,33.1,43.238a25.81,25.81,0,0,0,7.4-16.385,27.6,27.6,0,0,0-4.43-17.86C32.106,3.141,26.331.07,20.488,0Z" fill="#fafafa"/>
    </clipPath>
    <clipPath id="clip-Web_1920_3">
      <rect width="1920" height="732"/>
    </clipPath>
  </defs>
  <g id="Web_1920_3" data-name="Web 1920 – 3" clip-path="url(#clip-Web_1920_3)">
    <rect width="1920" height="732" fill="#fff"/>
    <rect id="Rettangolo_498" data-name="Rettangolo 498" width="1920" height="732" fill="#fff"/>
    <g id="Gruppo_di_maschere_688" data-name="Gruppo di maschere 688" clip-path="url(#clip-path)">
      <g id="Raggruppa_2426" data-name="Raggruppa 2426" transform="translate(0.199 -152.967) rotate(41)">
        <g id="Raggruppa_2425" data-name="Raggruppa 2425" transform="translate(0 0)">
          <path id="Tracciato_1564" data-name="Tracciato 1564" d="M316.786,235.8c-16.756,16.5-37.932,25.278-63.061,31.834-25.536,6.663-45.46,18.783-67.294,32.006-41.769,25.293-94.88,42.365-138.728.964C11.162,266.1-6.585,197.173,19.837,153.624c9.139-15.061,22.573-23.692,37.689-28.861,11.7-4,23.114-4.54,29.281-16,12.857-23.882,4.913-57.878,17.766-82.8,11.22-21.75,30.2-28.265,55.315-12.442,34.6,21.8,55.837,63.924,91.029,84.329,31.634,18.344,81.8,36.955,90.5,78.268,3.105,14.749-2.107,28.522-9.093,39.947A102.534,102.534,0,0,1,316.786,235.8" transform="translate(0)" fill="#fafafa"/>
        </g>
      </g>
      <g id="Raggruppa_2428" data-name="Raggruppa 2428" transform="translate(1700.647 506.215)">
        <g id="Raggruppa_2427" data-name="Raggruppa 2427" transform="translate(155.537 0) rotate(43)" clip-path="url(#clip-path-2)">
          <path id="Tracciato_1565" data-name="Tracciato 1565" d="M5.36,5.859,294.683-3.575,285.439,332.96-3.883,342.393Z" transform="matrix(0.607, -0.795, 0.795, 0.607, -123.1, 134.891)" fill="#fafafa"/>
        </g>
      </g>
      <g id="Raggruppa_2430" data-name="Raggruppa 2430" transform="translate(-208.478 69.418)">
        <g id="Raggruppa_2429" data-name="Raggruppa 2429" transform="translate(155.537 0) rotate(43)" clip-path="url(#clip-path-3)">
          <path id="Tracciato_1567" data-name="Tracciato 1567" d="M5.36,5.859,294.683-3.575,285.439,332.96-3.883,342.393Z" transform="matrix(0.607, -0.795, 0.795, 0.607, -123.1, 134.891)" fill="#f2f2f2"/>
        </g>
      </g>
      <g id="Raggruppa_2432" data-name="Raggruppa 2432" transform="translate(72.002 611.239)">
        <g id="Raggruppa_2431" data-name="Raggruppa 2431" transform="translate(155.537 0) rotate(43)" clip-path="url(#clip-path-3)">
          <path id="Tracciato_1569" data-name="Tracciato 1569" d="M5.36,5.859,294.683-3.575,285.439,332.96-3.883,342.393Z" transform="matrix(0.607, -0.795, 0.795, 0.607, -123.1, 134.891)" fill="#f2f2f2"/>
        </g>
      </g>
      <g id="Raggruppa_2434" data-name="Raggruppa 2434" transform="translate(1842.094 -269.156) rotate(41)">
        <g id="Raggruppa_2433" data-name="Raggruppa 2433" transform="translate(0 0)">
          <path id="Tracciato_1571" data-name="Tracciato 1571" d="M316.786,235.8c-16.756,16.5-37.932,25.278-63.061,31.834-25.536,6.663-45.46,18.783-67.294,32.006-41.769,25.293-94.88,42.365-138.728.964C11.162,266.1-6.585,197.173,19.837,153.624c9.139-15.061,22.573-23.692,37.689-28.861,11.7-4,23.114-4.54,29.281-16,12.857-23.882,4.913-57.878,17.766-82.8,11.22-21.75,30.2-28.265,55.315-12.442,34.6,21.8,55.837,63.924,91.029,84.329,31.634,18.344,81.8,36.955,90.5,78.268,3.105,14.749-2.107,28.522-9.093,39.947A102.534,102.534,0,0,1,316.786,235.8" transform="translate(0)" fill="#fafafa"/>
        </g>
      </g>
      <g id="Raggruppa_2436" data-name="Raggruppa 2436" transform="translate(1997.094 129.23) rotate(41)">
        <g id="Raggruppa_2435" data-name="Raggruppa 2435" transform="translate(0 0)">
          <path id="Tracciato_1572" data-name="Tracciato 1572" d="M316.786,235.8c-16.756,16.5-37.932,25.278-63.061,31.834-25.536,6.663-45.46,18.783-67.294,32.006-41.769,25.293-94.88,42.365-138.728.964C11.162,266.1-6.585,197.173,19.837,153.624c9.139-15.061,22.573-23.692,37.689-28.861,11.7-4,23.114-4.54,29.281-16,12.857-23.882,4.913-57.878,17.766-82.8,11.22-21.75,30.2-28.265,55.315-12.442,34.6,21.8,55.837,63.924,91.029,84.329,31.634,18.344,81.8,36.955,90.5,78.268,3.105,14.749-2.107,28.522-9.093,39.947A102.534,102.534,0,0,1,316.786,235.8" transform="translate(0)" fill="#fafafa"/>
        </g>
      </g>
      <g id="Raggruppa_2441" data-name="Raggruppa 2441" transform="translate(78.595 266.432)">
        <g id="Raggruppa_2438" data-name="Raggruppa 2438" transform="translate(0 2.95)">
          <g id="Raggruppa_2437" data-name="Raggruppa 2437" clip-path="url(#clip-path-5)">
            <path id="Tracciato_1573" data-name="Tracciato 1573" d="M2.241,2.073,48.423-1.515l-3.742,44.4L-1.5,46.468Z" transform="translate(-15.4 24.574) rotate(-58.392)" fill="#f2f2f2"/>
          </g>
        </g>
        <g id="Raggruppa_2440" data-name="Raggruppa 2440" transform="translate(2.458)">
          <g id="Raggruppa_2439" data-name="Raggruppa 2439" clip-path="url(#clip-path-6)">
            <path id="Tracciato_1575" data-name="Tracciato 1575" d="M2.15,2.161,50.177-1.57l-3.6,42.7L-1.449,44.86Z" transform="matrix(0.524, -0.852, 0.852, 0.524, -17.623, 28.727)" fill="#f2f2f2"/>
          </g>
        </g>
      </g>
      <g id="Raggruppa_2444" data-name="Raggruppa 2444" transform="translate(509.166 38.756)" style="isolation: isolate">
        <g id="Raggruppa_2443" data-name="Raggruppa 2443">
          <g id="Raggruppa_2442" data-name="Raggruppa 2442" clip-path="url(#clip-path-7)">
            <path id="Tracciato_1577" data-name="Tracciato 1577" d="M6.9,7.663l94.034.265.266,94.83-94.034-.265Z" transform="translate(-37.615 59.496) rotate(-64.094)" fill="#fafafa"/>
          </g>
        </g>
      </g>
      <g id="Raggruppa_2447" data-name="Raggruppa 2447" transform="translate(1599.326 285.669)" style="isolation: isolate">
        <g id="Raggruppa_2446" data-name="Raggruppa 2446">
          <g id="Raggruppa_2445" data-name="Raggruppa 2445" clip-path="url(#clip-path-8)">
            <path id="Tracciato_1579" data-name="Tracciato 1579" d="M2.585,2.46,65.808-1.8,61.528,54.942-1.694,59.2Z" transform="translate(-19.293 40.631) rotate(-64.094)" fill="#fafafa"/>
          </g>
        </g>
      </g>
      <g id="Raggruppa_2452" data-name="Raggruppa 2452" transform="translate(1669.866 69.209)">
        <g id="Raggruppa_2449" data-name="Raggruppa 2449" transform="translate(0 2.95)">
          <g id="Raggruppa_2448" data-name="Raggruppa 2448" clip-path="url(#clip-path-5)">
            <path id="Tracciato_1581" data-name="Tracciato 1581" d="M2.241,2.073,48.423-1.515l-3.742,44.4L-1.5,46.468Z" transform="translate(-15.4 24.574) rotate(-58.392)" fill="#f2f2f2"/>
          </g>
        </g>
        <g id="Raggruppa_2451" data-name="Raggruppa 2451" transform="translate(2.458)">
          <g id="Raggruppa_2450" data-name="Raggruppa 2450" clip-path="url(#clip-path-6)">
            <path id="Tracciato_1583" data-name="Tracciato 1583" d="M2.15,2.161,50.177-1.57l-3.6,42.7L-1.449,44.86Z" transform="matrix(0.524, -0.852, 0.852, 0.524, -17.623, 28.727)" fill="#f2f2f2"/>
          </g>
        </g>
      </g>
      <g id="Raggruppa_2457" data-name="Raggruppa 2457" transform="translate(960 217.822)">
        <g id="Raggruppa_2454" data-name="Raggruppa 2454" transform="translate(0 2.95)">
          <g id="Raggruppa_2453" data-name="Raggruppa 2453" clip-path="url(#clip-path-5)">
            <path id="Tracciato_1585" data-name="Tracciato 1585" d="M2.241,2.073,48.423-1.515l-3.742,44.4L-1.5,46.468Z" transform="translate(-15.4 24.574) rotate(-58.392)" fill="#f2f2f2"/>
          </g>
        </g>
        <g id="Raggruppa_2456" data-name="Raggruppa 2456" transform="translate(2.458)">
          <g id="Raggruppa_2455" data-name="Raggruppa 2455" clip-path="url(#clip-path-6)">
            <path id="Tracciato_1587" data-name="Tracciato 1587" d="M2.15,2.161,50.177-1.57l-3.6,42.7L-1.449,44.86Z" transform="matrix(0.524, -0.852, 0.852, 0.524, -17.623, 28.727)" fill="#f2f2f2"/>
          </g>
        </g>
      </g>
    </g>
  </g>
</svg>
