<svg xmlns="http://www.w3.org/2000/svg" xmlns:xlink="http://www.w3.org/1999/xlink" width="393" height="852" viewBox="0 0 393 852">
  <defs>
    <clipPath id="clip-path">
      <rect id="Rettangolo_505" data-name="Rettangolo 505" width="393" height="858" fill="#f2f2f2"/>
    </clipPath>
    <clipPath id="clip-path-2">
      <rect id="Rettangolo_500" data-name="Rettangolo 500" width="367.316" height="361.034" fill="#e5e5e5"/>
    </clipPath>
    <clipPath id="clip-path-4">
      <path id="Tracciato_850" data-name="Tracciato 850" d="M13.17,53.927v0A28.987,28.987,0,0,1,58.183,17.387,28.989,28.989,0,0,1,13.17,53.927M35.279,0a36.161,36.161,0,0,0-3.708.23A35.646,35.646,0,0,0,.194,31.97,36.025,36.025,0,0,0,0,35.608v.215A35.658,35.658,0,0,0,35.59,71.311h.275A35.656,35.656,0,0,0,36,0Z" fill="#fafafa"/>
    </clipPath>
    <clipPath id="clip-iPhone_14_Pro_2">
      <rect width="393" height="852"/>
    </clipPath>
  </defs>
  <g id="iPhone_14_Pro_2" data-name="iPhone 14 Pro – 2" clip-path="url(#clip-iPhone_14_Pro_2)">
    <rect width="393" height="852" fill="#fff"/>
    <g id="Gruppo_di_maschere_687" data-name="Gruppo di maschere 687" clip-path="url(#clip-path)">
      <rect id="Rettangolo_499" data-name="Rettangolo 499" width="393" height="858" fill="#f2f2f2"/>
      <g id="Raggruppa_2417" data-name="Raggruppa 2417" transform="translate(-83.502 311.804) rotate(-120)" opacity="0.717">
        <path id="Tracciato_849" data-name="Tracciato 849" d="M230.031,156.687c-13.643,13.164-30.083,20.974-49.336,27.429-19.565,6.56-35.289,16.731-52.518,27.835-32.957,21.241-73.863,37.23-103.953,9.906C-.854,199.086-9.571,149.929,13.1,116.376c7.843-11.6,18.476-18.8,30.139-23.575,9.03-3.7,17.61-4.848,22.989-13.623,11.213-18.292,7.519-42.59,18.8-61.639C94.873.912,109.52-5.1,127.278,4.784c24.467,13.625,37.574,42.975,62.576,55.542,22.473,11.3,58.807,21.56,62.581,51.15,1.347,10.564-3.47,20.968-9.459,29.774a97.505,97.505,0,0,1-12.945,15.438" transform="translate(0 0)" fill="#efefef"/>
      </g>
      <g id="Raggruppa_2419" data-name="Raggruppa 2419" transform="translate(399.498 711.804) rotate(-120)" opacity="0.717">
        <path id="Tracciato_849-2" data-name="Tracciato 849" d="M230.031,156.687c-13.643,13.164-30.083,20.974-49.336,27.429-19.565,6.56-35.289,16.731-52.518,27.835-32.957,21.241-73.863,37.23-103.953,9.906C-.854,199.086-9.571,149.929,13.1,116.376c7.843-11.6,18.476-18.8,30.139-23.575,9.03-3.7,17.61-4.848,22.989-13.623,11.213-18.292,7.519-42.59,18.8-61.639C94.873.912,109.52-5.1,127.278,4.784c24.467,13.625,37.574,42.975,62.576,55.542,22.473,11.3,58.807,21.56,62.581,51.15,1.347,10.564-3.47,20.968-9.459,29.774a97.505,97.505,0,0,1-12.945,15.438" transform="translate(0 0)" fill="#efefef"/>
      </g>
      <g id="Raggruppa_2418" data-name="Raggruppa 2418" transform="matrix(0.999, 0.035, -0.035, 0.999, -245.924, 92.799)" clip-path="url(#clip-path-2)">
        <path id="Tracciato_1491" data-name="Tracciato 1491" d="M234.054,3.873C233.453,2.586,232.88,1.3,232.3,0,207.784,23.943,66.02,162.28,0,226.716c1.507.406,3.016.793,4.517,1.164L234.054,3.873" transform="translate(58.784 125.392)" fill="#e5e5e5"/>
        <path id="Tracciato_1492" data-name="Tracciato 1492" d="M0,44.256A200.585,200.585,0,0,0,27.176,23.294l.022-.018,5.125-5,.094-.094A66.71,66.71,0,0,0,45.346,0L0,44.256" transform="translate(317.984 268.582)" fill="#e5e5e5"/>
        <path id="Tracciato_1493" data-name="Tracciato 1493" d="M0,77.034q5.915-2.753,11.635-5.784l.007,0C40.819,42.769,26.183,57.054,78.219,6.267a1.829,1.829,0,0,0,.041-.2A44,44,0,0,0,78.938,0C22.707,54.872,40.224,37.776,0,77.034" transform="translate(288.378 252.123)" fill="#e5e5e5"/>
        <path id="Tracciato_1494" data-name="Tracciato 1494" d="M101.082,4.584l0-.009A30.852,30.852,0,0,0,100.068,0C38.157,60.413,59.608,39.479,0,97.652q4.777-1.757,9.475-3.671l.009,0C61.459,43.25,40.508,63.7,101.082,4.584" transform="translate(265.881 240.88)" fill="#e5e5e5"/>
        <path id="Tracciato_1495" data-name="Tracciato 1495" d="M117.657,3.668A41.269,41.269,0,0,0,115.7,0C49.322,64.776,74.342,40.354,0,112.921q4.213-1.268,8.39-2.626L117.657,3.668" transform="translate(246.336 232.129)" fill="#e5e5e5"/>
        <path id="Tracciato_1496" data-name="Tracciato 1496" d="M130.693,3.178c-.776-1.068-1.594-2.12-2.449-3.178C103.633,24.015,25.183,100.566,0,125.144c.391-.1,7.361-1.818,7.735-1.965.608-.594,122.337-119.4,122.958-120" transform="translate(228.519 224.713)" fill="#e5e5e5"/>
        <path id="Tracciato_1497" data-name="Tracciato 1497" d="M141.6,2.988C140.745,2,139.856,1,138.957,0,91.193,46.616,59.559,77.488,0,135.613q3.619-.711,7.232-1.485c17.795-17.372-4,3.9,134.371-131.141" transform="translate(211.93 217.876)" fill="#e5e5e5"/>
        <path id="Tracciato_1498" data-name="Tracciato 1498" d="M151.33,2.99Q150.008,1.519,148.692,0C99.019,48.472,49.11,97.172,0,145.1c2.285-.35,4.56-.722,6.847-1.11C125.18,28.513,55.87,96.155,151.33,2.99" transform="translate(196.225 211.131)" fill="#e5e5e5"/>
        <path id="Tracciato_1499" data-name="Tracciato 1499" d="M160.4,3.106Q159.119,1.564,157.867,0C45.15,110.014,112.87,43.912,0,154.064c2.182-.252,4.358-.521,6.544-.812l.009,0C108.174,54.059,102.609,59.495,160.4,3.106" transform="translate(181.282 204.184)" fill="#e5e5e5"/>
        <path id="Tracciato_1500" data-name="Tracciato 1500" d="M169.068,3.174Q167.831,1.6,166.61,0C98.973,66,81.432,83.121,0,162.6c2.089-.178,4.179-.357,6.278-.558l.009,0C78.75,91.313,112.554,58.324,169.068,3.174" transform="translate(166.949 197.074)" fill="#e5e5e5"/>
        <path id="Tracciato_1501" data-name="Tracciato 1501" d="M177.364,3.245c-.8-1.071-1.6-2.148-2.374-3.245C22.35,148.95,78.873,93.8,0,170.757q3.018-.139,6.06-.333C130.584,48.9,60.675,117.117,177.364,3.245" transform="translate(153.157 189.799)" fill="#e5e5e5"/>
        <path id="Tracciato_1502" data-name="Tracciato 1502" d="M185.35,3.309c-.778-1.1-1.539-2.2-2.306-3.309L59.387,120.671,0,178.626q2.916-.04,5.839-.133C60.755,124.909,63.37,122.361,185.35,3.309" transform="translate(139.839 182.354)" fill="#e5e5e5"/>
        <path id="Tracciato_1503" data-name="Tracciato 1503" d="M193.08,3.4c-.744-1.128-1.491-2.264-2.23-3.4L0,186.248q2.824.051,5.66.051C119.238,75.474,36.514,156.191,193.08,3.4" transform="translate(126.955 174.735)" fill="#e5e5e5"/>
        <path id="Tracciato_1504" data-name="Tracciato 1504" d="M200.561,3.475l0-.009c-.726-1.153-1.441-2.3-2.142-3.466C179.4,18.551,19.01,175.066,0,193.626q2.718.133,5.476.225L200.561,3.475" transform="translate(114.492 166.96)" fill="#e5e5e5"/>
        <path id="Tracciato_1505" data-name="Tracciato 1505" d="M207.784,3.558Q206.734,1.784,205.707,0L0,200.764c1.844.17,3.6.319,5.265.43C41.027,166.283,122.25,87.033,207.784,3.558" transform="translate(102.462 158.999)" fill="#e5e5e5"/>
        <path id="Tracciato_1506" data-name="Tracciato 1506" d="M214.729,3.626c-.68-1.2-1.342-2.408-2-3.626C209.518,3.112,29.727,178.577,0,207.582q2.607.347,5.074.627C53.866,160.6,62.906,151.759,214.729,3.626" transform="translate(90.893 150.88)" fill="#e5e5e5"/>
        <path id="Tracciato_1507" data-name="Tracciato 1507" d="M221.377,3.707Q220.4,1.864,219.466,0C218.877.575,35.638,179.4,0,214.184c1.645.286,3.277.559,4.877.817C135.528,87.485,221.377,3.707,221.377,3.707" transform="translate(79.789 142.558)" fill="#e5e5e5"/>
        <path id="Tracciato_1508" data-name="Tracciato 1508" d="M227.822,3.8Q226.894,1.9,226,0C218.915,6.915,7.627,213.112,0,220.555c1.57.353,3.139.68,4.693.993C61.887,165.727,209.506,21.686,227.822,3.8" transform="translate(69.079 134.069)" fill="#e5e5e5"/>
        <path id="Tracciato_1509" data-name="Tracciato 1509" d="M240.038,3.967C239.479,2.644,238.924,1.33,238.38,0,234.107,4.174,4.538,228.2,0,232.628q2.147.711,4.315,1.358C107.7,133.088,98.3,142.275,240.038,3.967" transform="translate(48.92 116.524)" fill="#e5e5e5"/>
        <path id="Tracciato_1510" data-name="Tracciato 1510" d="M245.716,4.043Q244.921,2.028,244.159,0C199.877,43.229,61.694,178.062,0,238.272c1.349.553,2.717,1.08,4.086,1.588C37.57,207.18,211.13,37.808,245.716,4.043" transform="translate(39.561 107.443)" fill="#e5e5e5"/>
        <path id="Tracciato_1511" data-name="Tracciato 1511" d="M251.058,4.134Q250.3,2.075,249.588,0L0,243.574c1.25.63,2.531,1.247,3.829,1.838C71.2,179.645,236.716,18.127,251.058,4.134" transform="translate(30.766 98.166)" fill="#e5e5e5"/>
        <path id="Tracciato_1512" data-name="Tracciato 1512" d="M255.961,4.23c-.47-1.4-.923-2.816-1.369-4.23C132.848,118.807,104.766,146.189,0,248.455c1.147.726,2.318,1.442,3.523,2.126L255.961,4.23" transform="translate(22.615 88.671)" fill="#e5e5e5"/>
        <path id="Tracciato_1513" data-name="Tracciato 1513" d="M260.306,4.349c-.431-1.448-.85-2.891-1.257-4.349C175.109,81.915,257.566,1.462,0,252.8c1.011.855,2.058,1.686,3.154,2.5,103.628-101.115,43.76-42.716,257.152-250.95" transform="translate(15.253 78.932)" fill="#e5e5e5"/>
        <path id="Tracciato_1514" data-name="Tracciato 1514" d="M263.913,4.456q-.594-2.22-1.149-4.456C213.908,47.665,203.753,57.591,0,256.426c.839,1.016,1.74,2,2.688,2.952C37.909,225.006,227.355,40.124,263.913,4.456" transform="translate(8.879 68.956)" fill="#e5e5e5"/>
        <path id="Tracciato_1515" data-name="Tracciato 1515" d="M266.465,4.531c-.01-.024-.009-.044-.017-.068-.347-1.471-.688-2.955-1.04-4.462C139.859,122.5,92.249,168.981,0,258.993a37.715,37.715,0,0,0,2.052,3.567C63.916,202.2,216.119,53.665,266.465,4.531" transform="translate(3.806 58.765)" fill="#e5e5e5"/>
        <path id="Tracciato_1516" data-name="Tracciato 1516" d="M267.247,4.456Q266.694,2.233,266.1,0C206.716,57.942,58.176,202.909,0,259.686a31.61,31.61,0,0,0,1.146,4.448c41.332-40.342,224.724-219.3,266.1-259.678" transform="translate(0.597 48.649)" fill="#e5e5e5"/>
        <path id="Tracciato_1517" data-name="Tracciato 1517" d="M265.17,4.274Q264.534,2.125,263.841,0L.736,256.749l0,.009A29.721,29.721,0,0,0,0,263.042C28.882,234.859,235.172,33.551,265.17,4.274" transform="translate(0 38.871)" fill="#e5e5e5"/>
        <path id="Tracciato_1518" data-name="Tracciato 1518" d="M195.975,4.019c-.509-1.362-1.039-2.7-1.594-4.019C176.188,17.756,39.049,151.6,22.92,167.326c-.307.728-11.389,15.259-22.92,27.944C20.2,175.562,177.255,22.289,195.975,4.019" transform="translate(66.052 29.611)" fill="#e5e5e5"/>
        <path id="Tracciato_1519" data-name="Tracciato 1519" d="M29.471,0c-6.78,5.841-12.7,10.389-18.795,16.275A74.522,74.522,0,0,0,0,28.758C28.427,1.023,23.171,6.153,29.471,0" transform="translate(6.152 254.58)" fill="#e5e5e5"/>
        <path id="Tracciato_1520" data-name="Tracciato 1520" d="M154.681,3.672c-.616-1.253-1.269-2.483-1.952-3.672C59.447,91.04,108.812,42.853,8.313,140.935Q4.3,147.874,0,154.621C130.368,27.407,111.966,45.362,154.681,3.672" transform="translate(103.539 21.108)" fill="#e5e5e5"/>
        <path id="Tracciato_1521" data-name="Tracciato 1521" d="M133.477,3.218Q132.328,1.552,131.058,0C44.16,84.812,53.033,76.141,5.39,122.641,3.646,126.284,1.86,129.888,0,133.472,84.421,51.088,66.274,68.79,133.477,3.218" transform="translate(120.073 13.557)" fill="#e5e5e5"/>
        <path id="Tracciato_1522" data-name="Tracciato 1522" d="M116.55,2.626A38.04,38.04,0,0,0,113.534,0C98,15.161,20.648,90.632,3.916,106.971Q2.021,111.7,0,116.37L116.55,2.626" transform="translate(131.191 7.245)" fill="#e5e5e5"/>
        <path id="Tracciato_1523" data-name="Tracciato 1523" d="M101.1,1.859A34.2,34.2,0,0,0,97.3,0C41.313,54.637,4.3,90.751,3.031,91.989c-.99,2.85-1.988,5.7-3.031,8.536C71.156,31.074,48.466,53.218,101.1,1.859" transform="translate(139.373 2.527)" fill="#e5e5e5"/>
        <path id="Tracciato_1524" data-name="Tracciato 1524" d="M85.257.786A32.056,32.056,0,0,0,80.347,0C36.694,42.593,53.449,26.244,2.974,75.5l0,.011C1.963,78.321.978,81.132,0,83.968L85.257.786" transform="translate(146.035 0)" fill="#e5e5e5"/>
        <path id="Tracciato_1525" data-name="Tracciato 1525" d="M66.038,0A46.11,46.11,0,0,0,59.2,1.106C23.226,36.207,35.88,23.86,4.031,54.939l0,.012C2.6,58.074,1.271,61.245,0,64.449.3,64.156,24.765,40.281,66.038,0" transform="translate(153.152 0.021)" fill="#e5e5e5"/>
        <path id="Tracciato_1526" data-name="Tracciato 1526" d="M36.763,0a72.784,72.784,0,0,0-19.9,14.008A104.611,104.611,0,0,0,0,35.88C19.238,17.109,11.1,25.049,36.763,0" transform="translate(164.383 5.059)" fill="#e5e5e5"/>
      </g>
      <g id="Raggruppa_2420" data-name="Raggruppa 2420" transform="matrix(0.999, 0.035, -0.035, 0.999, 237.076, 492.799)" clip-path="url(#clip-path-2)">
        <path id="Tracciato_1527" data-name="Tracciato 1527" d="M234.054,3.873C233.453,2.586,232.88,1.3,232.3,0,207.784,23.943,66.02,162.28,0,226.716c1.507.406,3.016.793,4.517,1.164L234.054,3.873" transform="translate(58.784 125.392)" fill="#e5e5e5"/>
        <path id="Tracciato_1528" data-name="Tracciato 1528" d="M0,44.256A200.585,200.585,0,0,0,27.176,23.294l.022-.018,5.125-5,.094-.094A66.71,66.71,0,0,0,45.346,0L0,44.256" transform="translate(317.984 268.582)" fill="#e5e5e5"/>
        <path id="Tracciato_1529" data-name="Tracciato 1529" d="M0,77.034q5.915-2.753,11.635-5.784l.007,0C40.819,42.769,26.183,57.054,78.219,6.267a1.829,1.829,0,0,0,.041-.2A44,44,0,0,0,78.938,0C22.707,54.872,40.224,37.776,0,77.034" transform="translate(288.378 252.123)" fill="#e5e5e5"/>
        <path id="Tracciato_1530" data-name="Tracciato 1530" d="M101.082,4.584l0-.009A30.852,30.852,0,0,0,100.068,0C38.157,60.413,59.608,39.479,0,97.652q4.777-1.757,9.475-3.671l.009,0C61.459,43.25,40.508,63.7,101.082,4.584" transform="translate(265.881 240.88)" fill="#e5e5e5"/>
        <path id="Tracciato_1531" data-name="Tracciato 1531" d="M117.657,3.668A41.269,41.269,0,0,0,115.7,0C49.322,64.776,74.342,40.354,0,112.921q4.213-1.268,8.39-2.626L117.657,3.668" transform="translate(246.336 232.129)" fill="#e5e5e5"/>
        <path id="Tracciato_1532" data-name="Tracciato 1532" d="M130.693,3.178c-.776-1.068-1.594-2.12-2.449-3.178C103.633,24.015,25.183,100.566,0,125.144c.391-.1,7.361-1.818,7.735-1.965.608-.594,122.337-119.4,122.958-120" transform="translate(228.519 224.713)" fill="#e5e5e5"/>
        <path id="Tracciato_1533" data-name="Tracciato 1533" d="M141.6,2.988C140.745,2,139.856,1,138.957,0,91.193,46.616,59.559,77.488,0,135.613q3.619-.711,7.232-1.485c17.795-17.372-4,3.9,134.371-131.141" transform="translate(211.93 217.876)" fill="#e5e5e5"/>
        <path id="Tracciato_1534" data-name="Tracciato 1534" d="M151.33,2.99Q150.008,1.519,148.692,0C99.019,48.472,49.11,97.172,0,145.1c2.285-.35,4.56-.722,6.847-1.11C125.18,28.513,55.87,96.155,151.33,2.99" transform="translate(196.225 211.131)" fill="#e5e5e5"/>
        <path id="Tracciato_1535" data-name="Tracciato 1535" d="M160.4,3.106Q159.119,1.564,157.867,0C45.15,110.014,112.87,43.912,0,154.064c2.182-.252,4.358-.521,6.544-.812l.009,0C108.174,54.059,102.609,59.495,160.4,3.106" transform="translate(181.282 204.184)" fill="#e5e5e5"/>
        <path id="Tracciato_1536" data-name="Tracciato 1536" d="M169.068,3.174Q167.831,1.6,166.61,0C98.973,66,81.432,83.121,0,162.6c2.089-.178,4.179-.357,6.278-.558l.009,0C78.75,91.313,112.554,58.324,169.068,3.174" transform="translate(166.949 197.074)" fill="#e5e5e5"/>
        <path id="Tracciato_1537" data-name="Tracciato 1537" d="M177.364,3.245c-.8-1.071-1.6-2.148-2.374-3.245C22.35,148.95,78.873,93.8,0,170.757q3.018-.139,6.06-.333C130.584,48.9,60.675,117.117,177.364,3.245" transform="translate(153.157 189.799)" fill="#e5e5e5"/>
        <path id="Tracciato_1538" data-name="Tracciato 1538" d="M185.35,3.309c-.778-1.1-1.539-2.2-2.306-3.309L59.387,120.671,0,178.626q2.916-.04,5.839-.133C60.755,124.909,63.37,122.361,185.35,3.309" transform="translate(139.839 182.354)" fill="#e5e5e5"/>
        <path id="Tracciato_1539" data-name="Tracciato 1539" d="M193.08,3.4c-.744-1.128-1.491-2.264-2.23-3.4L0,186.248q2.824.051,5.66.051C119.238,75.474,36.514,156.191,193.08,3.4" transform="translate(126.955 174.735)" fill="#e5e5e5"/>
        <path id="Tracciato_1540" data-name="Tracciato 1540" d="M200.561,3.475l0-.009c-.726-1.153-1.441-2.3-2.142-3.466C179.4,18.551,19.01,175.066,0,193.626q2.718.133,5.476.225L200.561,3.475" transform="translate(114.492 166.96)" fill="#e5e5e5"/>
        <path id="Tracciato_1541" data-name="Tracciato 1541" d="M207.784,3.558Q206.734,1.784,205.707,0L0,200.764c1.844.17,3.6.319,5.265.43C41.027,166.283,122.25,87.033,207.784,3.558" transform="translate(102.462 158.999)" fill="#e5e5e5"/>
        <path id="Tracciato_1542" data-name="Tracciato 1542" d="M214.729,3.626c-.68-1.2-1.342-2.408-2-3.626C209.518,3.112,29.727,178.577,0,207.582q2.607.347,5.074.627C53.866,160.6,62.906,151.759,214.729,3.626" transform="translate(90.893 150.88)" fill="#e5e5e5"/>
        <path id="Tracciato_1543" data-name="Tracciato 1543" d="M221.377,3.707Q220.4,1.864,219.466,0C218.877.575,35.638,179.4,0,214.184c1.645.286,3.277.559,4.877.817C135.528,87.485,221.377,3.707,221.377,3.707" transform="translate(79.789 142.558)" fill="#e5e5e5"/>
        <path id="Tracciato_1544" data-name="Tracciato 1544" d="M227.822,3.8Q226.894,1.9,226,0C218.915,6.915,7.627,213.112,0,220.555c1.57.353,3.139.68,4.693.993C61.887,165.727,209.506,21.686,227.822,3.8" transform="translate(69.079 134.069)" fill="#e5e5e5"/>
        <path id="Tracciato_1545" data-name="Tracciato 1545" d="M240.038,3.967C239.479,2.644,238.924,1.33,238.38,0,234.107,4.174,4.538,228.2,0,232.628q2.147.711,4.315,1.358C107.7,133.088,98.3,142.275,240.038,3.967" transform="translate(48.92 116.524)" fill="#e5e5e5"/>
        <path id="Tracciato_1546" data-name="Tracciato 1546" d="M245.716,4.043Q244.921,2.028,244.159,0C199.877,43.229,61.694,178.062,0,238.272c1.349.553,2.717,1.08,4.086,1.588C37.57,207.18,211.13,37.808,245.716,4.043" transform="translate(39.561 107.443)" fill="#e5e5e5"/>
        <path id="Tracciato_1547" data-name="Tracciato 1547" d="M251.058,4.134Q250.3,2.075,249.588,0L0,243.574c1.25.63,2.531,1.247,3.829,1.838C71.2,179.645,236.716,18.127,251.058,4.134" transform="translate(30.766 98.166)" fill="#e5e5e5"/>
        <path id="Tracciato_1548" data-name="Tracciato 1548" d="M255.961,4.23c-.47-1.4-.923-2.816-1.369-4.23C132.848,118.807,104.766,146.189,0,248.455c1.147.726,2.318,1.442,3.523,2.126L255.961,4.23" transform="translate(22.615 88.671)" fill="#e5e5e5"/>
        <path id="Tracciato_1549" data-name="Tracciato 1549" d="M260.306,4.349c-.431-1.448-.85-2.891-1.257-4.349C175.109,81.915,257.566,1.462,0,252.8c1.011.855,2.058,1.686,3.154,2.5,103.628-101.115,43.76-42.716,257.152-250.95" transform="translate(15.253 78.932)" fill="#e5e5e5"/>
        <path id="Tracciato_1550" data-name="Tracciato 1550" d="M263.913,4.456q-.594-2.22-1.149-4.456C213.908,47.665,203.753,57.591,0,256.426c.839,1.016,1.74,2,2.688,2.952C37.909,225.006,227.355,40.124,263.913,4.456" transform="translate(8.879 68.956)" fill="#e5e5e5"/>
        <path id="Tracciato_1551" data-name="Tracciato 1551" d="M266.465,4.531c-.01-.024-.009-.044-.017-.068-.347-1.471-.688-2.955-1.04-4.462C139.859,122.5,92.249,168.981,0,258.993a37.715,37.715,0,0,0,2.052,3.567C63.916,202.2,216.119,53.665,266.465,4.531" transform="translate(3.806 58.765)" fill="#e5e5e5"/>
        <path id="Tracciato_1552" data-name="Tracciato 1552" d="M267.247,4.456Q266.694,2.233,266.1,0C206.716,57.942,58.176,202.909,0,259.686a31.61,31.61,0,0,0,1.146,4.448c41.332-40.342,224.724-219.3,266.1-259.678" transform="translate(0.597 48.649)" fill="#e5e5e5"/>
        <path id="Tracciato_1553" data-name="Tracciato 1553" d="M265.17,4.274Q264.534,2.125,263.841,0L.736,256.749l0,.009A29.721,29.721,0,0,0,0,263.042C28.882,234.859,235.172,33.551,265.17,4.274" transform="translate(0 38.871)" fill="#e5e5e5"/>
        <path id="Tracciato_1554" data-name="Tracciato 1554" d="M195.975,4.019c-.509-1.362-1.039-2.7-1.594-4.019C176.188,17.756,39.049,151.6,22.92,167.326c-.307.728-11.389,15.259-22.92,27.944C20.2,175.562,177.255,22.289,195.975,4.019" transform="translate(66.052 29.611)" fill="#e5e5e5"/>
        <path id="Tracciato_1555" data-name="Tracciato 1555" d="M29.471,0c-6.78,5.841-12.7,10.389-18.795,16.275A74.522,74.522,0,0,0,0,28.758C28.427,1.023,23.171,6.153,29.471,0" transform="translate(6.152 254.58)" fill="#e5e5e5"/>
        <path id="Tracciato_1556" data-name="Tracciato 1556" d="M154.681,3.672c-.616-1.253-1.269-2.483-1.952-3.672C59.447,91.04,108.812,42.853,8.313,140.935Q4.3,147.874,0,154.621C130.368,27.407,111.966,45.362,154.681,3.672" transform="translate(103.539 21.108)" fill="#e5e5e5"/>
        <path id="Tracciato_1557" data-name="Tracciato 1557" d="M133.477,3.218Q132.328,1.552,131.058,0C44.16,84.812,53.033,76.141,5.39,122.641,3.646,126.284,1.86,129.888,0,133.472,84.421,51.088,66.274,68.79,133.477,3.218" transform="translate(120.073 13.557)" fill="#e5e5e5"/>
        <path id="Tracciato_1558" data-name="Tracciato 1558" d="M116.55,2.626A38.04,38.04,0,0,0,113.534,0C98,15.161,20.648,90.632,3.916,106.971Q2.021,111.7,0,116.37L116.55,2.626" transform="translate(131.191 7.245)" fill="#e5e5e5"/>
        <path id="Tracciato_1559" data-name="Tracciato 1559" d="M101.1,1.859A34.2,34.2,0,0,0,97.3,0C41.313,54.637,4.3,90.751,3.031,91.989c-.99,2.85-1.988,5.7-3.031,8.536C71.156,31.074,48.466,53.218,101.1,1.859" transform="translate(139.373 2.527)" fill="#e5e5e5"/>
        <path id="Tracciato_1560" data-name="Tracciato 1560" d="M85.257.786A32.056,32.056,0,0,0,80.347,0C36.694,42.593,53.449,26.244,2.974,75.5l0,.011C1.963,78.321.978,81.132,0,83.968L85.257.786" transform="translate(146.035 0)" fill="#e5e5e5"/>
        <path id="Tracciato_1561" data-name="Tracciato 1561" d="M66.038,0A46.11,46.11,0,0,0,59.2,1.106C23.226,36.207,35.88,23.86,4.031,54.939l0,.012C2.6,58.074,1.271,61.245,0,64.449.3,64.156,24.765,40.281,66.038,0" transform="translate(153.152 0.021)" fill="#e5e5e5"/>
        <path id="Tracciato_1562" data-name="Tracciato 1562" d="M36.763,0a72.784,72.784,0,0,0-19.9,14.008A104.611,104.611,0,0,0,0,35.88C19.238,17.109,11.1,25.049,36.763,0" transform="translate(164.383 5.059)" fill="#e5e5e5"/>
      </g>
      <g id="Raggruppa_2421" data-name="Raggruppa 2421" transform="translate(312 176.689)" style="isolation: isolate">
        <g id="Raggruppa_1948" data-name="Raggruppa 1948">
          <g id="Raggruppa_1947" data-name="Raggruppa 1947" clip-path="url(#clip-path-4)">
            <rect id="Rettangolo_353" data-name="Rettangolo 353" width="95.663" height="96.047" transform="translate(-28.025 57.698) rotate(-64.094)" fill="#fafafa"/>
          </g>
        </g>
      </g>
    </g>
  </g>
</svg>
